<svg width="194" height="216" viewBox="0 0 194 216" fill="none" xmlns="http://www.w3.org/2000/svg">
<rect x="30" width="134" height="134" rx="12" fill="#FAB615"/>
<path d="M82.9228 40.5463H75.8232V93.4643H82.9228V40.5463Z" fill="black"/>
<path d="M144 66.9947C144 68.1285 143.936 69.2305 143.852 70.3325V70.5444H143.83C142.008 94.8206 121.705 114 96.9947 114C71.0761 114 50 92.9133 50 66.9947C50 41.0655 71.0761 20 97.0053 20C114.15 20 129.197 29.24 137.388 43.0046L132.185 48.2074C125.478 35.6508 112.232 27.0783 97.0053 27.0783C74.9861 27.0783 57.0783 44.9861 57.0783 66.9841C57.0783 88.982 74.9755 106.922 96.9947 106.922C117.795 106.922 134.93 90.9 136.72 70.5444H100.216L119.936 90.2642L114.924 95.2763L86.6421 66.9841L91.6541 61.972L114.924 38.6919L119.936 43.704L100.216 63.4661H143.852C143.936 64.6317 144 65.8079 144 66.9947Z" fill="black"/>
<path d="M18.7 201.6C15.4 201.6 12.5167 200.85 10.05 199.35C7.58333 197.85 5.66667 195.767 4.3 193.1C2.93333 190.4 2.25 187.267 2.25 183.7C2.25 180.1 2.95 176.933 4.35 174.2C5.78333 171.433 7.8 169.283 10.4 167.75C13.0333 166.183 16.15 165.4 19.75 165.4C23.85 165.4 27.25 166.383 29.95 168.35C32.65 170.317 34.4 173.033 35.2 176.5H28.05C27.5167 174.867 26.55 173.6 25.15 172.7C23.75 171.767 21.95 171.3 19.75 171.3C16.25 171.3 13.55 172.417 11.65 174.65C9.75 176.85 8.8 179.883 8.8 183.75C8.8 187.617 9.73333 190.617 11.6 192.75C13.5 194.85 16.0667 195.9 19.3 195.9C22.4667 195.9 24.85 195.05 26.45 193.35C28.0833 191.617 29.0667 189.35 29.4 186.55H20.55V181.75H35.85V201H29.95L29.45 196.4C28.3167 198.067 26.9 199.35 25.2 200.25C23.5 201.15 21.3333 201.6 18.7 201.6ZM45.3719 172.35C44.2052 172.35 43.2385 172 42.4719 171.3C41.7385 170.6 41.3719 169.717 41.3719 168.65C41.3719 167.583 41.7385 166.717 42.4719 166.05C43.2385 165.35 44.2052 165 45.3719 165C46.5385 165 47.4885 165.35 48.2219 166.05C48.9885 166.717 49.3719 167.583 49.3719 168.65C49.3719 169.717 48.9885 170.6 48.2219 171.3C47.4885 172 46.5385 172.35 45.3719 172.35ZM42.1719 201V176.2H48.5719V201H42.1719ZM55.252 201V176.2H60.952L61.552 180.85C62.452 179.25 63.6686 177.983 65.202 177.05C66.7686 176.083 68.602 175.6 70.702 175.6V182.35H68.902C67.502 182.35 66.252 182.567 65.152 183C64.052 183.433 63.1853 184.183 62.552 185.25C61.952 186.317 61.652 187.8 61.652 189.7V201H55.252ZM86.5367 201.6C84.1367 201.6 81.9701 201.05 80.0367 199.95C78.1367 198.85 76.6201 197.333 75.4867 195.4C74.3867 193.433 73.8367 191.167 73.8367 188.6C73.8367 186.033 74.4034 183.783 75.5367 181.85C76.6701 179.883 78.1867 178.35 80.0867 177.25C82.0201 176.15 84.1867 175.6 86.5867 175.6C88.9534 175.6 91.0867 176.15 92.9867 177.25C94.9201 178.35 96.4367 179.883 97.5367 181.85C98.6701 183.783 99.2367 186.033 99.2367 188.6C99.2367 191.167 98.6701 193.433 97.5367 195.4C96.4367 197.333 94.9201 198.85 92.9867 199.95C91.0534 201.05 88.9034 201.6 86.5367 201.6ZM86.5367 196.05C88.2034 196.05 89.6534 195.433 90.8867 194.2C92.1201 192.933 92.7367 191.067 92.7367 188.6C92.7367 186.133 92.1201 184.283 90.8867 183.05C89.6534 181.783 88.2201 181.15 86.5867 181.15C84.8867 181.15 83.4201 181.783 82.1867 183.05C80.9867 184.283 80.3867 186.133 80.3867 188.6C80.3867 191.067 80.9867 192.933 82.1867 194.2C83.4201 195.433 84.8701 196.05 86.5367 196.05Z" fill="#202020"/>
<path d="M105.109 201V166H111.509V180.15L124.459 166H132.359L119.459 179.9L132.709 201H124.859L114.859 184.8L111.509 188.45V201H105.109ZM143.782 201.6C141.649 201.6 139.899 201.267 138.532 200.6C137.166 199.9 136.149 198.983 135.482 197.85C134.816 196.717 134.482 195.467 134.482 194.1C134.482 191.8 135.382 189.933 137.182 188.5C138.982 187.067 141.682 186.35 145.282 186.35H151.582V185.75C151.582 184.05 151.099 182.8 150.132 182C149.166 181.2 147.966 180.8 146.532 180.8C145.232 180.8 144.099 181.117 143.132 181.75C142.166 182.35 141.566 183.25 141.332 184.45H135.082C135.249 182.65 135.849 181.083 136.882 179.75C137.949 178.417 139.316 177.4 140.982 176.7C142.649 175.967 144.516 175.6 146.582 175.6C150.116 175.6 152.899 176.483 154.932 178.25C156.966 180.017 157.982 182.517 157.982 185.75V201H152.532L151.932 197C151.199 198.333 150.166 199.433 148.832 200.3C147.532 201.167 145.849 201.6 143.782 201.6ZM145.232 196.6C147.066 196.6 148.482 196 149.482 194.8C150.516 193.6 151.166 192.117 151.432 190.35H145.982C144.282 190.35 143.066 190.667 142.332 191.3C141.599 191.9 141.232 192.65 141.232 193.55C141.232 194.517 141.599 195.267 142.332 195.8C143.066 196.333 144.032 196.6 145.232 196.6ZM178.79 201.6C176.923 201.6 175.29 201.25 173.89 200.55C172.49 199.85 171.357 198.867 170.49 197.6L169.79 201H164.09V165H170.49V179.75C171.29 178.65 172.34 177.683 173.64 176.85C174.973 176.017 176.69 175.6 178.79 175.6C181.123 175.6 183.207 176.167 185.04 177.3C186.873 178.433 188.323 179.983 189.39 181.95C190.457 183.917 190.99 186.15 190.99 188.65C190.99 191.15 190.457 193.383 189.39 195.35C188.323 197.283 186.873 198.817 185.04 199.95C183.207 201.05 181.123 201.6 178.79 201.6ZM177.44 196C179.473 196 181.157 195.317 182.49 193.95C183.823 192.583 184.49 190.817 184.49 188.65C184.49 186.483 183.823 184.7 182.49 183.3C181.157 181.9 179.473 181.2 177.44 181.2C175.373 181.2 173.673 181.9 172.34 183.3C171.04 184.667 170.39 186.433 170.39 188.6C170.39 190.767 171.04 192.55 172.34 193.95C173.673 195.317 175.373 196 177.44 196Z" fill="#F7B518"/>
</svg>
