<?xml version="1.0" encoding="UTF-8"?>
<svg id="Layer_2" data-name="Layer 2" xmlns="http://www.w3.org/2000/svg" viewBox="0 0 487.48 143.95">
  <defs>
    <style>
      .cls-1 {
        fill: #fab60b;
      }
    </style>
  </defs>
  <g id="Layer_1-2" data-name="Layer 1">
    <g>
      <g>
        <rect class="cls-1" width="143.95" height="143.95" rx="10.7" ry="10.7"/>
        <g>
          <rect x="49.5" y="43.88" width="7.53" height="56.19"/>
          <path d="M121.9,71.97c0,1.2-.07,2.37-.16,3.55v.22h-.02c-1.93,25.78-23.49,46.14-49.74,46.14-27.53,0-49.91-22.38-49.91-49.91S44.45,22.08,71.98,22.08c18.21,0,34.18,9.81,42.88,24.42l-5.52,5.52c-7.12-13.33-21.18-22.43-37.36-22.43-23.38,0-42.39,19.01-42.39,42.37s19.01,42.39,42.39,42.39c22.09,0,40.29-17.01,42.19-38.62h-38.78l20.94,20.94-5.32,5.32-30.04-30.04,5.32-5.32,24.71-24.71,5.32,5.32-20.94,20.96h46.34c.09,1.24,.16,2.48,.16,3.75Z"/>
        </g>
        <g>
          <path d="M200.06,103.48c-5.75,0-10.77-1.31-15.07-3.92-4.3-2.61-7.64-6.27-10.02-10.98-2.38-4.7-3.57-10.19-3.57-16.47s1.22-11.7,3.66-16.47c2.44-4.76,5.91-8.49,10.41-11.2,4.5-2.7,9.83-4.05,15.99-4.05,6.97,0,12.78,1.69,17.42,5.05,4.65,3.37,7.67,8.02,9.06,13.94h-10.45c-.93-3.25-2.76-5.81-5.49-7.67-2.73-1.86-6.24-2.79-10.54-2.79-6.39,0-11.41,2.06-15.07,6.19-3.66,4.12-5.49,9.82-5.49,17.08s1.8,12.92,5.4,16.99c3.6,4.07,8.39,6.1,14.38,6.1s10.59-1.71,13.64-5.14c3.05-3.43,4.84-7.99,5.36-13.68h-16.55v-7.14h25.88v33.11h-8.45l-.78-8.97c-2.03,3.19-4.59,5.66-7.67,7.41-3.08,1.74-7.09,2.61-12.02,2.61Z"/>
          <path d="M241.62,51.03c-1.74,0-3.18-.54-4.31-1.61-1.13-1.07-1.7-2.42-1.7-4.05s.57-2.98,1.7-4.05c1.13-1.07,2.57-1.61,4.31-1.61s3.18,.54,4.31,1.61c1.13,1.08,1.7,2.43,1.7,4.05s-.57,2.98-1.7,4.05c-1.13,1.08-2.57,1.61-4.31,1.61Zm-4.62,51.4V59.22h9.24v43.21h-9.24Z"/>
          <path d="M254.95,102.44V59.22h8.28l.78,8.19c1.51-2.85,3.62-5.1,6.32-6.75,2.7-1.65,5.97-2.48,9.8-2.48v9.67h-2.53c-2.56,0-4.84,.42-6.84,1.26-2,.84-3.6,2.27-4.79,4.27-1.19,2-1.79,4.78-1.79,8.32v20.74h-9.24Z"/>
          <path d="M303.56,103.48c-4.12,0-7.83-.94-11.11-2.83-3.28-1.89-5.88-4.53-7.8-7.93-1.92-3.4-2.87-7.36-2.87-11.89s.97-8.49,2.92-11.89c1.94-3.4,4.57-6.04,7.88-7.93s7-2.83,11.07-2.83,7.83,.94,11.11,2.83c3.28,1.89,5.89,4.53,7.84,7.93,1.94,3.4,2.92,7.36,2.92,11.89s-.97,8.49-2.92,11.89c-1.95,3.4-4.57,6.04-7.88,7.93-3.31,1.89-7.03,2.83-11.15,2.83Zm0-7.93c2.21,0,4.25-.55,6.14-1.65,1.89-1.1,3.41-2.75,4.57-4.92,1.16-2.18,1.74-4.89,1.74-8.15s-.57-5.97-1.7-8.15c-1.13-2.18-2.64-3.82-4.53-4.92-1.89-1.1-3.94-1.65-6.14-1.65s-4.26,.55-6.14,1.65c-1.89,1.1-3.41,2.74-4.57,4.92-1.16,2.18-1.74,4.89-1.74,8.15s.58,5.97,1.74,8.15c1.16,2.18,2.67,3.82,4.53,4.92,1.86,1.1,3.89,1.65,6.1,1.65Z"/>
          <path class="cls-1" d="M332.4,102.44V41.45h9.24v26.14l24.05-26.14h11.41l-22.56,24.31,23.09,36.68h-11.24l-18.47-29.62-6.27,6.8v22.83h-9.24Z"/>
          <path class="cls-1" d="M394,103.48c-3.66,0-6.68-.61-9.06-1.83-2.38-1.22-4.15-2.83-5.31-4.84-1.16-2-1.74-4.19-1.74-6.58,0-4.18,1.63-7.49,4.88-9.93,3.25-2.44,7.9-3.66,13.94-3.66h11.33v-.78c0-3.37-.91-5.89-2.74-7.58-1.83-1.68-4.2-2.53-7.1-2.53-2.56,0-4.78,.62-6.67,1.87-1.89,1.25-3.04,3.09-3.44,5.53h-9.23c.29-3.14,1.35-5.82,3.18-8.06,1.83-2.23,4.15-3.95,6.97-5.14,2.82-1.19,5.91-1.79,9.28-1.79,6.04,0,10.72,1.58,14.03,4.75,3.31,3.17,4.97,7.48,4.97,12.94v26.57h-8.02l-.79-7.41c-1.22,2.38-2.99,4.39-5.31,6.01-2.32,1.63-5.37,2.44-9.15,2.44Zm1.83-7.49c2.5,0,4.6-.6,6.32-1.79,1.71-1.19,3.05-2.77,4.01-4.75,.96-1.97,1.55-4.15,1.79-6.53h-10.28c-3.66,0-6.26,.64-7.8,1.92-1.54,1.28-2.31,2.88-2.31,4.79s.74,3.53,2.22,4.66c1.48,1.13,3.5,1.7,6.05,1.7Z"/>
          <path class="cls-1" d="M448.89,103.48c-3.37,0-6.35-.67-8.93-2-2.59-1.34-4.63-3.22-6.14-5.66l-.96,6.62h-8.28V39.7h9.23v26.23c1.39-2.03,3.31-3.83,5.75-5.4,2.44-1.57,5.58-2.35,9.41-2.35,4.18,0,7.87,.99,11.07,2.96,3.19,1.97,5.71,4.68,7.54,8.1,1.83,3.43,2.74,7.32,2.74,11.67s-.91,8.23-2.74,11.63-4.34,6.07-7.54,8.02c-3.19,1.94-6.91,2.92-11.15,2.92Zm-1.57-8.02c3.95,0,7.2-1.35,9.76-4.05,2.56-2.7,3.83-6.23,3.83-10.59,0-2.85-.58-5.37-1.74-7.58-1.16-2.21-2.76-3.93-4.79-5.18-2.03-1.25-4.39-1.87-7.06-1.87-3.95,0-7.19,1.37-9.71,4.1-2.53,2.73-3.79,6.24-3.79,10.54s1.26,7.88,3.79,10.59c2.53,2.7,5.76,4.05,9.71,4.05Z"/>
        </g>
      </g>
      <g>
        <path d="M460.03,11.61v-1.7h10.13v1.7h-4.08v11.39h-1.97V11.61h-4.08Z"/>
        <path d="M474.19,9.91h2.4l4.17,10.18h.15l4.17-10.18h2.4v13.09h-1.88V13.53h-.12l-3.86,9.45h-1.56l-3.86-9.46h-.12v9.48h-1.88V9.91Z"/>
      </g>
    </g>
  </g>
</svg>