<svg xmlns="http://www.w3.org/2000/svg" viewBox="0 0 64 64" id="female-horse-rider"><path d="M10.00879 63.99609a.99942.99942 0 01-1-1V53.001a1 1 0 012 0v9.99511A.99942.99942 0 0110.00879 63.99609zM30.00879 43.999a16.01833 16.01833 0 01-16-16 1 1 0 012 0 14 14 0 0028 0 1 1 0 012 0A16.01833 16.01833 0 0130.00879 43.999z"></path><path d="M15.00879 28.999a.99942.99942 0 01-1-1V23.002a1 1 0 012 0V27.999A.99942.99942 0 0115.00879 28.999zM45.00879 28.999a.99942.99942 0 01-1-1V23.002a1 1 0 012 0V27.999A.99942.99942 0 0145.00879 28.999z"></path><path d="M29.99316 44.00391a16.01834 16.01834 0 01-16-16 1 1 0 012 0 14 14 0 0028 0 1 1 0 012 0A16.01833 16.01833 0 0129.99316 44.00391zM47.99316 20.002a.99942.99942 0 01-1-1 17 17 0 00-34 0 1 1 0 01-2 0 19 19 0 0138 0A.99942.99942 0 0147.99316 20.002z"></path><path d="M14.99316 29.00391a.99943.99943 0 01-1-1V22.002a1 1 0 012 0v6.002A.99942.99942 0 0114.99316 29.00391zM44.99316 29.00391a.99943.99943 0 01-1-1V22.002a1 1 0 012 0v6.002A.99942.99942 0 0144.99316 29.00391z"></path><path d="M44.99121,23.002H14.99512a1,1,0,0,1,0-2H44.99121a1,1,0,0,1,0,2Z"></path><path d="M14.99316 23.002a.99674.99674 0 01-.707-.293l-3.002-3a.99989.99989 0 111.41406-1.41406l3.002 3a1 1 0 01-.707 1.707zM44.99316 23.002a1 1 0 01-.707-1.707l3-3A.99989.99989 0 1148.7002 19.709l-3 3A.99676.99676 0 0144.99316 23.002z"></path><path d="M47.99316 20.002H11.99121a1 1 0 010-2h36.002a1 1 0 010 2zM44.99121 33.99609h-.85058a1 1 0 110-2h.85058a1 1 0 010 2zM15.84668 34.00781H11.99316a1 1 0 110-2h3.85352a1 1 0 010 2z"></path><path d="M48.99121 27.92969a.99943.99943 0 01-1-1V20.002a1 1 0 010-2 2.0026 2.0026 0 012 2v6.92774A.99942.99942 0 0148.99121 27.92969zM11.99512 34.00391a2.0026 2.0026 0 01-2-2V20.002a2.0026 2.0026 0 012-2 1 1 0 01.00293 2l-.00293 12.002a1 1 0 010 2zM34.02539 20.002a.99942.99942 0 01-1-1V1.45605a1 1 0 112 0V19.002A.99942.99942 0 0134.02539 20.002zM26.02539 20.002a.99942.99942 0 01-1-1V1.45605a1 1 0 012 0V19.002A.99942.99942 0 0126.02539 20.002zM53.99121 42.99609a.99942.99942 0 01-1-1 8.00917 8.00917 0 00-8-8 1 1 0 010-2 10.01177 10.01177 0 0110 10A.99942.99942 0 0153.99121 42.99609z"></path><path d="M53.99121,35.99609a.99942.99942,0,0,1-1-1,8.00917,8.00917,0,0,0-8-8,1,1,0,0,1,0-2,10.01177,10.01177,0,0,1,10,10A.99942.99942,0,0,1,53.99121,35.99609Z"></path><path d="M53.99121 42.99609a.99942.99942 0 01-1-1v-7a1 1 0 012 0v7A.99942.99942 0 0153.99121 42.99609zM10.00879 54.001a.99942.99942 0 01-1-1 7.00932 7.00932 0 017.00195-7.002 1 1 0 010 2 5.008 5.008 0 00-5.00195 5.002A.99943.99943 0 0110.00879 54.001zM50.00879 54a.99942.99942 0 01-1-1 5.00588 5.00588 0 00-5-5 1 1 0 010-2 7.0085 7.0085 0 017 7A.99943.99943 0 0150.00879 54z"></path><path d="M22.00781 48h0l-5.99707-.001a1 1 0 110-2h0L22.00781 46a1 1 0 110 2zM44.00879 48h0l-5.999-.001a1 1 0 010-2h0l5.999.001a1 1 0 110 2zM50.00879 63.99805a.99942.99942 0 01-1-1V53a1 1 0 012 0v9.998A.99943.99943 0 0150.00879 63.99805zM24.00879 45.99805a.99942.99942 0 01-1-1V41.75a1 1 0 012 0v3.248A.99943.99943 0 0124.00879 45.99805zM36.00879 45.99805a.99942.99942 0 01-1-1V41.75a1 1 0 012 0v3.248A.99943.99943 0 0136.00879 45.99805zM30.02832 51.99805a1 1 0 01-.00977-2h.00977a1 1 0 010 2zM30.02832 55.99805a1 1 0 01-.00977-2h.00977a1 1 0 010 2zM25.1709 50.17871a1.00016 1.00016 0 01-.41211-1.91211l4.83887-2.18066a1.00049 1.00049 0 11.82226 1.82422l-4.83887 2.18066A1.00711 1.00711 0 0125.1709 50.17871z"></path><path d="M34.84766 50.17578a.99935.99935 0 01-.40918-.08789l-4.83985-2.17773a1.00009 1.00009 0 11.82032-1.82422l4.83984 2.17773a1 1 0 01-.41113 1.91211zM20.00879 50a1 1 0 01-.707-1.707l4-4.00195a.99989.99989 0 011.41406 1.41406l-4 4.002A.99676.99676 0 0120.00879 50z"></path><path d="M23.00977,53.99805a.99871.99871,0,0,1-.80079-.39942l-3-3.998a1.0002,1.0002,0,0,1,1.59961-1.20118l3,3.998a1,1,0,0,1-.79882,1.60059Z"></path><path d="M21.00879,55.99805a1,1,0,0,1-.707-1.707l2-2a.99989.99989,0,0,1,1.41406,1.41406l-2,2A.99676.99676,0,0,1,21.00879,55.99805Z"></path><path d="M27.00977,63.99805a.99559.99559,0,0,1-.80079-.40039l-6-8a.99961.99961,0,1,1,1.59961-1.19922l6,8a1.0001,1.0001,0,0,1-.79882,1.59961Z"></path><path d="M29.00781 63.99805a1.001 1.001 0 01-.96289-.73242l-5-18a1.00032 1.00032 0 011.92774-.53516l5 18a1.001 1.001 0 01-.69629 1.23144A1.02123 1.02123 0 0129.00781 63.99805zM40.00879 50a.99676.99676 0 01-.707-.293l-4-4.002A.99989.99989 0 0136.71582 44.291l4 4.00195a1 1 0 01-.707 1.707z"></path><path d="M37.00781,53.99805a1,1,0,0,1-.79883-1.60059l3-3.998a1.0002,1.0002,0,0,1,1.59961,1.20118l-3,3.998A.9987.9987,0,0,1,37.00781,53.99805Z"></path><path d="M39.00879,55.99805a.99676.99676,0,0,1-.707-.293l-2-2A.99989.99989,0,0,1,37.71582,52.291l2,2a1,1,0,0,1-.707,1.707Z"></path><path d="M33.00781,63.99805a1.00011,1.00011,0,0,1-.79883-1.59961l6-8a.99961.99961,0,1,1,1.59961,1.19922l-6,8A.99557.99557,0,0,1,33.00781,63.99805Z"></path><path d="M31.00977,63.99805a1.02117,1.02117,0,0,1-.26856-.03614,1.001,1.001,0,0,1-.69629-1.23144l5-18a1.00032,1.00032,0,0,1,1.92774.53516l-5,18A1.001,1.001,0,0,1,31.00977,63.99805Z"></path></svg>