<svg width="305" height="202" viewBox="0 0 305 202" fill="none" xmlns="http://www.w3.org/2000/svg">
<path d="M154.709 185.043H77.1456C73.8459 185.043 71.178 182.37 71.178 179.075V24.1837C71.178 20.884 73.8511 18.2161 77.1456 18.2161H154.709C158.003 18.2161 160.677 20.8892 160.677 24.1837V179.075C160.682 182.37 158.009 185.043 154.709 185.043Z" fill="#424543"/>
<path d="M154.73 32.3233V171.599C154.73 174.507 152.37 176.867 149.462 176.867H82.3979C79.4846 176.867 77.1299 174.502 77.1299 171.599V32.3233C77.1299 29.41 79.4846 27.0553 82.3979 27.0553H149.462C152.37 27.0553 154.73 29.41 154.73 32.3233Z" fill="white"/>
<path d="M103.762 27.0553V67.7322C103.762 69.8311 102.06 71.5331 99.9615 71.5331H77.1248V32.3285C77.1248 29.4152 79.4794 27.0605 82.3928 27.0605H103.762V27.0553Z" fill="#E9EFEC"/>
<path d="M130.019 123.383V160.358H77.1299V138.874C87.3109 138.874 96.0091 132.421 99.3453 123.383H130.019Z" fill="#E9EFEC"/>
<path d="M107.647 59.603V68.3273C107.647 72.1178 104.571 75.193 100.781 75.193V101.235H117.916V80.9309V75.193V59.603H107.647Z" fill="#88CDAF"/>
<path d="M154.73 123.378H134.311V160.353H154.73V123.378Z" fill="#E9EFEC"/>
<path d="M117.911 164.368C110.132 167.542 108.821 176.444 108.769 176.872H82.3979C79.4846 176.872 77.1299 174.507 77.1299 171.604V164.373H117.911V164.368Z" fill="#88CDAF"/>
<path d="M135.715 27.0553H107.647V56.7472H135.715V27.0553Z" fill="#E9EFEC"/>
<path d="M154.725 59.603H121.456V101.141H154.725V59.603Z" fill="#E9EFEC"/>
<path d="M154.73 104.781H100.781V119.838H154.73V104.781Z" fill="#E9EFEC"/>
<path d="M154.73 32.3233V56.7472H139.166V27.0553H149.462C152.37 27.0553 154.73 29.41 154.73 32.3233Z" fill="#E9EFEC"/>
<path d="M96.6514 75.2087V113.588C96.6514 124.751 87.9375 133.856 77.1248 134.112V75.2087H96.6514Z" fill="#E9EFEC"/>
<path d="M130.238 164.368C117.906 164.368 114.257 169.547 111.208 176.872H149.457C152.365 176.872 154.725 174.512 154.725 171.604V164.373H130.238V164.368Z" fill="#E9EFEC"/>
<path d="M117.201 22.2885C117.201 22.9933 116.632 23.5624 115.927 23.5624C115.228 23.5624 114.659 22.9933 114.659 22.2885C114.659 21.5889 115.228 21.0198 115.927 21.0198C116.632 21.0198 117.201 21.5889 117.201 22.2885Z" fill="white"/>
<path d="M199.396 98.6196C199.322 96.1292 199.578 93.0749 199.145 90.6472C198.618 87.6921 196.122 88.4648 194.206 88.4439C192.859 88.4282 191.517 88.4387 190.17 88.4543C184.328 88.3865 178.47 88.7989 172.669 89.6239C170.889 89.8745 167.485 89.5194 166.221 91.6235C165.511 92.8034 165.605 94.542 165.553 95.9465C165.454 98.6249 165.485 101.288 165.522 103.935C165.532 104.54 166.023 105.088 166.493 104.88C166.66 104.807 166.832 104.739 167.004 104.671C167.203 105.804 167.521 106.811 168.461 107.156C170.382 107.856 173.102 107.093 175.097 107.057C177.765 107.005 180.433 106.994 183.106 107.031C188.442 107.104 193.772 107.318 199.087 107.673C199.359 107.689 199.657 107.344 199.646 106.989L199.396 98.6196Z" fill="white"/>
<path d="M173.16 93.6441H171.202V92.4902H176.538V93.6441H174.58V98.6197H173.16V93.6441Z" fill="black"/>
<path d="M181.628 97.304H178.783L178.24 98.6145H176.789L179.519 92.485H180.918L183.659 98.6145H182.171L181.628 97.304ZM181.179 96.2285L180.208 93.8842L179.237 96.2285H181.179Z" fill="black"/>
<path d="M188.437 98.6197L186.954 96.4895L185.502 98.6197H183.874L186.139 95.5028L183.988 92.4902H185.596L187.006 94.4794L188.39 92.4902H189.925L187.789 95.4506L190.071 98.6197H188.437Z" fill="black"/>
<path d="M192.645 92.4902H191.225V98.6197H192.645V92.4902Z" fill="black"/>
<path d="M298.407 172.424C298.407 172.424 305.059 140.033 274.213 134.154L243.367 128.275C243.367 128.275 222.201 104.687 207.681 103.475C193.167 102.264 149.618 98.6354 137.521 107.104C125.424 115.572 116.956 134.154 116.956 134.154C116.956 134.154 87.927 135.167 83.0871 144.121C78.2472 153.075 79.4585 172.429 79.4585 172.429H298.407V172.424Z" fill="#FEBD11"/>
<path d="M237.54 134.713C237.54 134.713 217.883 113.014 204.575 111.683C191.267 110.351 149.739 108.221 143.881 112.748C138.023 117.274 127.643 134.311 127.643 134.311L237.54 134.713Z" fill="#040605"/>
<path d="M184.5 140.868H191.314C192.368 140.868 193.225 140.012 193.225 138.957C193.225 137.903 192.368 137.046 191.314 137.046H184.5C183.446 137.046 182.589 137.903 182.589 138.957C182.589 140.012 183.446 140.868 184.5 140.868Z" fill="#040605"/>
<path d="M128.39 140.868H135.203C136.258 140.868 137.114 140.012 137.114 138.957C137.114 137.903 136.258 137.046 135.203 137.046H128.39C127.335 137.046 126.479 137.903 126.479 138.957C126.479 140.012 127.33 140.868 128.39 140.868Z" fill="#040605"/>
<path d="M80.2522 178.517H300.041C302.391 178.517 304.296 176.611 304.296 174.262C304.296 171.912 302.391 170.007 300.041 170.007H80.2522C77.9027 170.007 75.9971 171.912 75.9971 174.262C75.9971 176.611 77.8975 178.517 80.2522 178.517Z" fill="#040605"/>
<path d="M83.0923 144.121C83.7554 142.894 84.8883 141.818 86.3241 140.873H93.644C96.1762 140.873 98.2332 142.925 98.2332 145.463C98.2332 147.995 96.1814 150.052 93.644 150.052H80.9622C81.4895 147.838 82.1839 145.797 83.0923 144.121Z" fill="white"/>
<path d="M268.95 142.711C271.628 145.713 285.433 144.063 291.515 143.171C290.836 142.424 290.105 141.704 289.307 141.009C285.709 137.892 280.823 135.412 274.213 134.154C273.722 134.06 273.242 133.971 272.772 133.877C271.555 133.648 270.391 133.423 269.268 133.214C268.041 135.934 266.71 140.216 268.95 142.711Z" fill="white"/>
<path d="M268.95 142.711C271.628 145.713 285.433 144.063 291.515 143.171C290.836 142.424 290.105 141.704 289.307 141.009C277.497 142.659 273.858 136.885 272.772 133.877C271.555 133.648 270.391 133.423 269.268 133.214C268.041 135.934 266.71 140.216 268.95 142.711Z" fill="#E9EFEC"/>
<path d="M182.589 108.357H177.885V138.822H182.589V108.357Z" fill="#FEBD11"/>
<path d="M180.208 138.822V163.58" stroke="#F8962C" stroke-width="2" stroke-miterlimit="10" stroke-linecap="round"/>
<path d="M206.486 107.673C206.486 107.673 224.514 112.372 242.124 133.214" stroke="#F8962C" stroke-width="2" stroke-miterlimit="10" stroke-linecap="round"/>
<path d="M226.044 179.446C226.044 191.564 235.87 201.39 247.988 201.39C260.106 201.39 269.932 191.564 269.932 179.446C269.932 167.328 260.106 157.502 247.988 157.502C235.864 157.508 226.044 167.328 226.044 179.446Z" fill="#040605"/>
<path d="M238.015 179.446C238.015 184.954 242.479 189.418 247.988 189.418C253.496 189.418 257.96 184.954 257.96 179.446C257.96 173.938 253.496 169.474 247.988 169.474C242.479 169.479 238.015 173.943 238.015 179.446Z" fill="white"/>
<path d="M106.623 179.446C106.623 191.564 116.449 201.39 128.567 201.39C140.685 201.39 150.511 191.564 150.511 179.446C150.511 167.328 140.685 157.502 128.567 157.502C116.449 157.502 106.623 167.328 106.623 179.446Z" fill="#040605"/>
<path d="M118.595 179.446C118.595 184.954 123.059 189.418 128.567 189.418C134.076 189.418 138.539 184.954 138.539 179.446C138.539 173.938 134.076 169.474 128.567 169.474C123.059 169.479 118.595 173.943 118.595 179.446Z" fill="white"/>
<path d="M25.3531 183.002C25.1599 182.683 24.8206 182.662 24.5543 182.793C24.4551 182.793 24.3402 182.819 24.2149 182.903C22.5651 183.978 19.1923 183.915 17.2135 183.508L16.6601 183.743C14.0339 184.505 11.4287 185.346 8.8756 186.333C7.28319 186.944 5.2522 187.565 4.12969 188.943C1.19026 192.556 6.91249 192.337 9.027 192.447C12.0082 192.603 14.9998 192.634 17.9862 192.541C20.1112 192.478 23.1498 192.828 25.1443 192.008C28.5901 190.588 26.6636 185.215 25.3531 183.002Z" fill="#020403"/>
<path d="M25.2591 182.908C24.5177 180.84 24.7892 178.355 24.9458 176.204C24.951 176.147 24.9354 176.105 24.9197 176.068C25.0659 175.906 24.9249 175.588 24.69 175.593C23.7711 175.604 22.8835 175.917 21.9698 176.053C20.8369 176.225 19.7039 176.324 18.5658 176.376C18.3935 176.277 18.122 176.35 18.1324 176.606C18.2368 179.013 17.84 181.326 17.0151 183.587C16.9733 183.696 17.0047 183.78 17.0673 183.837C17.0934 183.874 17.1247 183.91 17.177 183.931C18.5866 184.526 19.7144 185.064 21.2963 184.928C22.5964 184.819 23.9852 184.328 24.9406 183.43C24.998 183.372 25.0241 183.315 25.0346 183.252C25.1912 183.221 25.327 183.096 25.2591 182.908Z" fill="#FBBDA3"/>
<path d="M25.5203 174.596C23.8026 173.139 20.7483 173.818 18.5868 174.027C18.5293 174.001 18.4615 174.006 18.3884 174.042C18.2839 174.053 18.1743 174.063 18.0751 174.069C17.647 174.095 17.5008 174.46 17.5948 174.753C16.9526 175.515 16.6863 176.486 17.8558 177.086C19.6414 178.01 23.4841 178.057 25.2488 177.191C26.4287 176.616 26.5018 175.431 25.5203 174.596Z" fill="#F68C71"/>
<path d="M30.9919 111.223C30.4646 111.286 29.9372 111.343 29.4099 111.406C29.3472 110.889 28.5171 110.732 28.4336 111.307C28.4231 111.38 28.4127 111.453 28.4022 111.521C23.1917 112.106 17.9394 112.654 12.7914 113.609C12.781 113.244 12.2014 113.244 12.2171 113.614C12.2171 113.651 12.2171 113.682 12.2223 113.719C12.0605 113.75 11.8986 113.776 11.7368 113.808C11.5801 113.839 11.6115 114.095 11.7733 114.09C11.9247 114.084 12.0814 114.074 12.2328 114.069C12.5983 124.26 12.7131 134.472 12.9898 144.669C13.1308 149.843 13.2822 155.022 13.4075 160.196C13.491 163.512 13.4649 167.046 14.7075 170.174C15.1409 172.038 15.7726 173.808 17.3337 175.066C18.8373 176.277 21.1241 176.481 23.0768 175.953C25.1234 175.823 26.9926 174.7 27.9376 172.199C29.1958 168.868 28.2456 164.974 27.8801 161.564C27.3372 156.547 26.9978 151.509 26.862 146.465C26.5592 135.104 27.2119 123.545 29.2637 112.351C29.838 112.283 30.4176 112.21 30.9919 112.142C31.5714 112.08 31.5819 111.155 30.9919 111.223Z" fill="#F15C2F"/>
<path d="M18.6913 172.095C17.5792 168.545 17.0153 164.89 16.6655 161.194C16.3 157.346 16.0076 153.493 15.7727 149.634C15.2976 141.944 15.0835 134.232 15.1305 126.526C15.1566 122.135 15.3446 117.755 15.4124 113.369C15.4124 113.275 15.2767 113.28 15.2663 113.369C14.9739 117.248 14.9165 121.154 14.8747 125.038C14.8329 128.928 14.8538 132.823 14.9426 136.712C15.1201 144.528 15.5639 152.334 16.3105 160.118C16.7021 164.175 17.1354 168.289 18.4093 172.179C18.4615 172.351 18.7487 172.278 18.6913 172.095Z" fill="#F68C71"/>
<path d="M33.7382 192.008C35.7274 192.828 38.7712 192.478 40.8962 192.541C43.8826 192.635 46.8742 192.603 49.8554 192.447C51.9699 192.337 57.6974 192.556 54.7527 188.943C53.6302 187.565 51.594 186.949 50.0068 186.333C47.4538 185.346 44.8485 184.505 42.2223 183.743L41.6689 183.508C39.6901 183.915 36.3173 183.978 34.6675 182.903C34.537 182.819 34.4273 182.793 34.3281 182.793C34.0671 182.657 33.7225 182.683 33.5293 183.002C32.2241 185.215 30.2975 190.588 33.7382 192.008Z" fill="#020403"/>
<path d="M33.8476 183.252C33.858 183.315 33.8841 183.372 33.9468 183.43C34.9075 184.328 36.291 184.819 37.5911 184.928C39.1783 185.064 40.306 184.531 41.7104 183.931C41.7626 183.91 41.794 183.874 41.8201 183.837C41.8827 183.78 41.914 183.696 41.8723 183.586C41.0526 181.326 40.6558 179.013 40.755 176.606C40.7654 176.35 40.4992 176.277 40.3217 176.371C39.1783 176.314 38.0453 176.214 36.9175 176.047C36.0091 175.912 35.1163 175.604 34.1974 175.588C33.9625 175.583 33.8215 175.906 33.9677 176.068C33.9468 176.105 33.9363 176.152 33.9416 176.204C34.0982 178.35 34.3697 180.84 33.6283 182.908C33.5604 183.096 33.6962 183.221 33.8476 183.252Z" fill="#FBBDA3"/>
<path d="M33.6442 177.196C35.4089 178.057 39.2515 178.01 41.0371 177.092C42.2066 176.486 41.9403 175.515 41.2982 174.758C41.3921 174.465 41.246 174.095 40.8126 174.074C40.7134 174.069 40.6038 174.058 40.4994 174.048C40.4263 174.011 40.3584 174.006 40.301 174.032C38.1395 173.823 35.0852 173.144 33.3674 174.601C32.3859 175.431 32.459 176.616 33.6442 177.196Z" fill="#F68C71"/>
<path d="M27.8958 111.223C28.4232 111.286 28.9505 111.343 29.4778 111.406C29.5404 110.889 30.3706 110.732 30.4541 111.307C30.4646 111.38 30.475 111.453 30.4854 111.521C35.696 112.106 40.9484 109.432 46.0963 110.383C46.1067 110.017 46.6862 110.017 46.6706 110.388C46.6706 110.424 46.6706 110.456 46.6654 110.492C46.8272 110.524 46.9891 110.55 47.1509 110.581C47.3076 110.612 47.2762 110.868 47.1144 110.863C46.963 110.858 46.8063 110.847 46.6549 110.837C46.2895 121.028 46.1746 134.467 45.8979 144.664C45.7569 149.838 45.6055 155.017 45.4802 160.191C45.3967 163.506 45.4228 167.041 44.1802 170.168C43.7468 172.032 43.1151 173.802 41.554 175.061C40.0503 176.272 37.7635 176.475 35.8109 175.948C33.7642 175.818 31.8951 174.695 30.9501 172.194C29.6919 168.863 30.6421 164.968 31.0075 161.559C31.5505 156.542 31.8899 151.503 32.0256 146.46C32.3285 135.099 31.6759 123.54 29.624 112.346C29.0497 112.278 28.4701 112.205 27.8958 112.137C27.3163 112.079 27.3111 111.155 27.8958 111.223Z" fill="#F15C2F"/>
<path d="M44.0706 110.748C44.0602 110.654 43.9192 110.654 43.9244 110.748C44.7546 119.044 44.2377 127.45 43.8566 135.762C43.4754 144.022 43.1517 152.287 42.7079 160.541C42.4625 165.109 42.0449 169.688 40.7918 174.1C40.7501 174.251 40.985 174.314 41.0267 174.168C42.1075 170.367 42.5722 166.441 42.8332 162.509C43.1099 158.395 43.2457 154.265 43.4337 150.146C43.8096 141.771 44.3108 133.397 44.4987 125.017C44.6136 120.245 44.4935 115.499 44.0706 110.748Z" fill="#F68C71"/>
<path d="M47.25 31.0755C46.8793 29.6815 46.3728 28.2509 45.2503 27.2851C45.1929 27.2328 45.1145 27.285 45.1093 27.3425C39.8726 27.1023 34.6151 27.1963 29.3836 27.4051C24.0947 27.614 18.8111 27.9951 13.5483 28.559C13.3081 28.5851 13.3081 28.961 13.5483 28.9349C13.564 28.9349 13.5796 28.9297 13.5953 28.9297C14.7857 31.7438 15.809 34.6101 16.5869 37.5652C16.9681 39.0062 17.3179 40.4472 17.5894 41.9091C17.7251 42.6192 17.8452 43.3344 17.9496 44.0497C18.0645 44.8277 18.0802 45.6734 18.3099 46.4253C18.3151 46.4409 18.3255 46.4462 18.3308 46.4566C18.2942 46.4618 18.2524 46.4671 18.2159 46.4671C18.101 46.4775 18.1219 46.6446 18.2368 46.6289C20.5862 46.2739 23.014 46.159 25.3843 45.9554C27.6085 45.7674 29.8326 45.6108 32.0568 45.4855C36.5938 45.2297 41.1413 45.1044 45.6888 45.0939C45.7619 45.1357 45.8612 45.1305 45.9134 45.026C47.3178 42.1754 47.9705 38.9644 47.9026 35.7901C47.8765 34.1977 47.6572 32.6105 47.25 31.0755Z" fill="#D44A27"/>
<path d="M21.5732 33.2787C19.3908 30.0156 15.0469 27.3216 11.0841 28.5694C11.0894 28.5172 11.0528 28.465 10.9902 28.4806C6.81856 29.4935 4.02008 33.2161 3.43533 37.3668C3.13773 39.4761 3.29961 41.7785 4.14541 43.7573C5.00166 45.7622 6.59928 46.9212 8.6668 47.4903C11.0424 48.143 13.5641 48.1221 15.971 47.647C18.1377 47.2188 20.1844 46.3887 21.5888 44.6188C24.2254 41.3034 23.8443 36.6724 21.5732 33.2787Z" fill="#F15C2F"/>
<path d="M16.5922 33.4406C15.3026 32.5583 13.6058 32.2293 12.1022 32.6836C10.468 33.1743 9.16795 34.5997 8.54665 36.1503C7.91491 37.7166 8.05585 39.711 9.37155 40.9014C10.5672 41.9822 12.4833 42.0918 13.7154 41.0111C14.8536 40.0086 14.8745 38.0038 13.4544 37.2206C12.1648 36.5053 10.4419 37.7636 10.8387 39.215C10.8648 39.3142 11.0214 39.2725 10.9953 39.1733C10.8021 38.3536 11.3869 37.5495 12.1805 37.3303C12.9218 37.1266 13.6424 37.5652 13.9869 38.2178C14.7388 39.6223 13.6998 41.0737 12.2692 41.3974C10.5881 41.7786 9.03743 40.5203 8.65108 38.9279C8.26994 37.3825 8.91212 35.7796 9.91455 34.6101C10.823 33.5503 12.0552 32.8506 13.4753 32.8559C14.8328 32.8611 16.1902 33.4354 17.1248 34.4222C19.1088 36.5158 18.9469 39.8781 17.3179 42.1127C16.4095 43.3553 15.0938 44.3108 13.658 44.8537C12.217 45.3967 10.374 45.5742 9.17318 44.4308C8.91213 44.1855 8.51011 44.5927 8.7816 44.8224C11.4913 47.1301 15.7308 44.9686 17.579 42.5669C19.6517 39.852 19.5943 35.4925 16.5922 33.4406Z" fill="#F68C71"/>
<path d="M49.6412 75.0207C49.5577 67.2362 48.8424 59.4673 47.5633 51.7924C47.5372 51.6201 47.5006 51.4478 47.4745 51.2755C47.4745 51.1659 47.4798 51.0615 47.4798 50.9518C47.7617 49.7875 47.5946 48.5919 47.1195 47.506C46.9629 46.9734 46.7488 46.4722 46.4721 46.018C46.4616 46.0023 46.4564 45.9866 46.446 45.9762C45.9291 45.1565 45.1982 44.5039 44.1905 44.1541C41.8202 42.6817 38.792 42.499 36.0718 42.5147C32.1352 42.5355 28.1881 42.687 24.2515 42.8645C20.6646 43.0263 16.9473 43.0472 13.4231 43.8095C10.3949 44.4673 7.69565 45.9292 5.77954 48.3988C4.00439 50.6908 2.99149 53.484 2.3232 56.272C1.52438 59.5874 1.12759 63.0124 0.767345 66.4008C0.349664 70.3688 0.0990638 74.3576 0.0259696 78.3465C-0.0523456 82.3353 0.0468524 86.3294 0.318345 90.313C0.563733 93.9625 0.845676 97.6799 1.53485 101.277C2.10916 104.264 3.4353 106.994 6.32774 108.305C9.1523 109.584 12.3946 109.458 15.428 109.453C19.3646 109.448 23.3065 109.438 27.2431 109.432C30.7777 109.427 34.4585 109.631 37.9044 108.707C40.7446 107.95 43.1672 106.284 44.8901 103.903C46.5139 101.658 47.4641 98.9851 48.0906 96.312C48.8111 93.2316 49.0826 90.0677 49.3019 86.9194C49.5682 82.9566 49.683 78.9887 49.6412 75.0207Z" fill="#542310"/>
<path d="M9.60654 50.059C3.33088 58.7677 2.00476 70.0712 2.0152 80.5341C2.0152 80.9204 2.56341 80.9048 2.60517 80.5341C3.6807 70.0085 3.84255 59.3838 10.1756 50.388C10.4106 50.0434 9.84671 49.7249 9.60654 50.059Z" fill="#81391F"/>
<path d="M3.03861 91.2372C3.03861 90.8091 2.42253 90.8248 2.38599 91.2372C2.0414 95.0277 1.94741 98.8025 4.55791 101.836C5.06435 102.426 5.91538 101.57 5.40894 100.98C3.05948 98.2491 3.02817 94.657 3.03861 91.2372Z" fill="#81391F"/>
<path d="M9.60654 49.8763C3.33088 58.585 2.00476 69.8884 2.0152 80.3514C2.0152 80.7377 2.56341 80.722 2.60517 80.3514C3.6807 69.831 3.84255 59.201 10.1756 50.2052C10.4106 49.8606 9.84671 49.5422 9.60654 49.8763Z" fill="#81391F"/>
<path d="M9.60654 50.059C3.33088 58.7677 2.00476 70.0712 2.0152 80.5341C2.0152 80.9204 2.56341 80.9048 2.60517 80.5341C3.6807 70.0085 3.84255 59.3838 10.1756 50.388C10.4106 50.0434 9.84671 49.7249 9.60654 50.059Z" fill="#81391F"/>
<path d="M3.03861 91.2372C3.03861 90.8091 2.42253 90.8248 2.38599 91.2372C2.0414 95.0277 1.94741 98.8025 4.55791 101.836C5.06435 102.426 5.91538 101.57 5.40894 100.98C3.05948 98.2491 3.02817 94.657 3.03861 91.2372Z" fill="#81391F"/>
<path d="M3.03861 91.0545C3.03861 90.6264 2.42253 90.642 2.38599 91.0545C2.0414 94.845 1.94741 98.6198 4.55791 101.653C5.06435 102.243 5.91538 101.387 5.40894 100.797C3.05948 98.0663 3.02817 94.4743 3.03861 91.0545Z" fill="#81391F"/>
<path d="M51.8602 136.357C51.8133 136.326 51.7663 136.295 51.7193 136.263C51.8446 133.585 51.7402 130.896 51.3538 128.239C51.0197 125.947 50.4402 123.472 48.5554 121.937C46.9943 120.663 44.9581 120.564 43.2352 121.582C41.3138 122.715 40.2853 124.761 39.9355 126.907C39.4499 129.894 39.8676 133.089 40.2435 136.065C40.2226 136.075 40.2017 136.096 40.1756 136.101C40.1286 136.117 40.0138 136.143 40.019 136.065C40.019 136.007 39.925 135.992 39.9146 136.049C39.8937 136.201 40.0294 136.258 40.16 136.248C40.3845 136.232 40.5777 136.049 40.7604 135.934C41.2668 135.611 41.7732 135.292 42.264 134.942C42.4468 134.812 42.2797 134.519 42.097 134.624C41.9403 132.755 41.674 130.859 41.7106 128.99C41.7419 127.351 42.1283 125.508 43.4127 124.37C44.6291 123.294 46.6236 123.012 47.7722 124.338C48.806 125.534 48.8373 127.314 48.9156 128.808C49.0253 130.938 49.0618 133.068 49.0409 135.198C48.9783 135.188 48.9156 135.172 48.853 135.167C48.7538 135.151 48.7068 135.303 48.8112 135.323C48.8895 135.339 48.9678 135.365 49.0461 135.386C49.0461 135.444 49.0461 135.506 49.0461 135.564C49.0409 135.819 49.4429 135.819 49.4481 135.564C49.4481 135.538 49.4481 135.517 49.4481 135.491C49.8188 135.6 50.1791 135.725 50.5237 135.898C50.7899 136.023 51.0458 136.169 51.2912 136.331C51.3016 136.336 51.3121 136.347 51.3277 136.357C51.3225 136.456 51.3225 136.556 51.3173 136.66C51.3016 136.911 51.6932 136.911 51.7088 136.66C51.7088 136.65 51.7088 136.639 51.7088 136.629C51.7976 136.697 51.8811 136.764 52.0065 136.738C52.0482 136.728 52.0847 136.681 52.0847 136.634C52.0743 136.493 51.9699 136.43 51.8602 136.357Z" fill="#9B4741"/>
<path d="M57.4832 138.503C56.1205 135.438 53.4578 133.444 50.2417 132.603C47.297 131.831 43.9347 132.06 41.3033 133.689C38.5832 134.566 36.4686 136.838 35.2521 139.401C33.5814 142.925 33.3256 147.003 33.3935 150.845C33.43 152.892 33.6075 154.934 33.9103 156.954C34.2131 158.959 34.5525 161.079 35.3096 162.974C36.4634 165.861 39.241 167.099 42.1752 167.412C45.2452 167.735 48.6754 167.407 51.5835 166.362C52.9775 165.861 54.3036 165.125 55.3426 164.055C56.5226 162.843 57.1908 161.282 57.5824 159.653C58.0366 157.758 58.2246 155.785 58.423 153.853C58.6318 151.827 58.7937 149.791 58.8563 147.76C58.966 144.643 58.7676 141.385 57.4832 138.503Z" fill="#542310"/>
<path d="M44.9005 134.112C38.8337 135.971 35.3669 142.904 35.6332 149.065C35.6489 149.405 36.1553 149.498 36.244 149.149C36.9906 146.141 36.9698 143.207 38.5204 140.409C39.9196 137.892 42.2847 135.616 45.0728 134.739C45.4748 134.613 45.3025 133.987 44.9005 134.112Z" fill="#81391F"/>
<path d="M52.8105 136.3C52.4137 135.992 52.0117 136.634 52.4137 136.811C55.7499 138.315 55.3062 144.805 55.3636 147.849C55.374 148.376 56.1937 148.376 56.1781 147.849C56.0841 143.896 56.2198 138.931 52.8105 136.3Z" fill="#81391F"/>
<path d="M53.6041 148.094C47.6573 143.494 37.9932 147.645 36.2338 154.631C35.6386 156.991 35.8735 159.538 36.2077 161.919C36.3747 163.125 36.6462 164.321 37.09 165.443C38.4579 166.613 40.2853 167.208 42.1805 167.407C45.2504 167.73 48.6807 167.401 51.594 166.357C52.988 165.856 54.3141 165.12 55.3531 164.049C56.533 162.838 57.2014 161.277 57.5929 159.648C57.76 158.959 57.8801 158.265 57.9897 157.565C57.5146 154.109 56.4913 150.329 53.6041 148.094Z" fill="#9B4741"/>
<path d="M48.0905 147.243C45.2085 147.765 42.8643 148.564 40.8072 150.783C39.0059 152.72 38.0244 155.111 37.7007 157.711C37.6485 158.129 38.3794 158.228 38.4368 157.81C39.0999 152.897 43.0104 148.345 48.174 147.885C48.6439 147.843 48.5604 147.154 48.0905 147.243Z" fill="#952726"/>
<path d="M38.4422 160.938C38.5936 160.447 37.6956 160.379 37.8105 160.938C37.9045 161.382 37.7948 161.925 37.8105 162.384C37.8209 162.755 37.7791 163.151 38.0036 163.465C38.1342 163.647 38.3691 163.606 38.4526 163.407C38.5988 163.057 38.4736 162.661 38.4422 162.29C38.4109 161.878 38.3221 161.34 38.4422 160.938Z" fill="#952726"/>
<path d="M55.306 156.046C55.0346 153.785 53.9381 152.318 52.8261 150.423C52.5911 150.026 51.9907 150.454 52.3144 150.819C54.7369 153.56 54.3767 158.009 53.5831 161.256C53.4683 161.726 54.1522 162.055 54.3871 161.596C55.2643 159.899 55.5358 157.93 55.306 156.046Z" fill="#952726"/>
<path d="M53.0507 73.7207C53.1342 73.6737 53.2178 73.632 53.3013 73.5798C53.719 73.3187 53.2961 72.6713 52.8627 72.854C50.8109 73.7416 48.9156 75.2348 46.7698 75.9449C46.6132 75.8196 46.3417 75.8822 46.3208 76.0911C46.3208 76.0911 46.3156 76.0963 46.3103 76.0963C45.9762 76.1851 44.5822 76.5871 44.3368 76.6393C45.83 83.082 46.6393 89.9215 46.608 96.4896C46.5871 101.486 47.3128 106.472 47.1457 111.458C47.0935 112.831 47.0622 114.21 47.0413 115.583C45.3549 116.183 44.0706 118.11 43.4336 119.739C43.2509 120.214 42.7392 121.368 43.5223 121.587C44.1645 121.759 45.0678 121.002 45.7621 120.329C45.3915 121.268 44.9738 122.156 44.4099 123.07C44.1698 123.461 43.8095 123.947 43.5067 124.443C43.2456 124.876 43.4284 125.471 43.9087 125.628C44.0653 125.675 44.2481 125.68 44.4621 125.607C44.4621 125.607 45.0103 126.918 46.1329 126.328C46.1329 126.328 46.1903 127.184 47.1614 127.111C47.7148 127.069 48.1952 126.709 48.451 126.213C49.5108 124.135 52.9201 117.269 53.7816 113.145C54.3559 110.393 54.7266 107.605 54.9981 104.864C56.0528 94.3959 55.2331 83.98 53.0507 73.7207ZM44.3368 76.6393V76.6288C44.2898 76.6497 44.2951 76.6497 44.3368 76.6393Z" fill="#FBBDA3"/>
<path d="M25.7811 44.7649C25.7811 44.7649 14.8535 47.4224 12.645 54.074C10.4313 60.7204 6.23364 72.2692 6.23364 72.2692C6.23364 72.2692 9.11041 77.5268 14.6395 77.5268C14.6395 77.5268 9.82568 98.5779 9.3819 114.121C9.3819 114.121 32.0045 119.128 47.2656 114.069C47.2656 114.069 47.5893 88.517 45.6001 76.6079C45.6001 76.6079 51.7922 77.4381 54.2252 74.2741C54.2252 74.2741 55.52 52.8157 36.5155 44.1593L25.7811 44.7649Z" fill="#0286B5"/>
<path d="M22.4816 49.3386C22.3824 48.0334 22.0535 46.4358 21.0093 45.7153C20.4663 45.3393 19.7197 45.2454 19.0827 45.4646C18.5241 45.4751 18.0072 45.7466 17.673 46.3C17.6626 46.3157 17.6574 46.3366 17.6469 46.3522C17.5947 46.3261 17.5216 46.3522 17.5164 46.441C17.5112 46.5193 17.5059 46.6028 17.5007 46.6812C17.3859 47.0362 17.365 47.4278 17.4381 47.7932C16.9838 56.2669 16.4148 64.7354 15.5167 73.1621C15.0364 77.6626 14.4778 82.1475 13.8304 86.6219C13.5171 88.8043 13.1777 90.9867 12.8331 93.1638C12.5303 95.0591 12.05 97.1527 12.6086 99.0427C12.7914 99.664 13.1203 100.254 13.538 100.729C12.6504 101.674 11.4914 102.306 10.1704 102.426C9.31419 102.504 8.17078 101.904 7.36153 102.259C6.31732 102.718 6.77157 103.997 7.53905 104.462C8.90174 105.287 10.5255 105.35 11.9769 104.869C12.2066 104.812 12.4364 104.739 12.6556 104.645C13.35 104.352 13.9505 103.909 14.4256 103.36C14.9059 102.875 15.2922 102.311 15.5533 101.679C16.5557 101.606 17.3546 100.776 17.8453 99.7632C18.5711 98.2595 18.8164 96.4792 19.1349 94.8189C19.5526 92.6469 19.9181 90.4593 20.247 88.2665C21.5522 79.6362 22.2049 70.8858 22.4346 62.1354C22.492 59.9478 22.5181 57.7601 22.5338 55.5725C22.5495 53.5102 22.6382 51.3957 22.4816 49.3386Z" fill="#9B4741"/>
<path d="M18.4927 47.9394C19.3124 51.7507 18.3831 56.1677 17.9967 59.9999C17.6156 63.7486 17.0569 67.4868 16.7802 71.2407C16.7593 71.5331 17.2397 71.601 17.2919 71.3086C18.7747 63.7016 19.7353 55.5725 19.1349 47.8506C19.0983 47.3807 18.3935 47.4695 18.4927 47.9394Z" fill="#952726"/>
<path d="M20.9571 65.8735C21.0511 70.3584 20.0643 74.9998 19.5683 79.4481C19.5266 79.8293 20.174 79.918 20.2418 79.5369C21.0511 75.0312 20.9885 70.468 21.5993 65.957C21.6672 65.4819 20.9467 65.4088 20.9571 65.8735Z" fill="#952726"/>
<path d="M47.2604 103.355L47.2709 106.483C47.0934 106.603 46.8532 106.624 46.707 106.436C46.1536 105.726 45.7098 104.942 45.4435 104.081C45.1616 103.183 45.1459 102.154 44.8901 101.235C44.3628 100.854 43.9242 100.071 43.6318 99.3089C43.0001 97.6747 42.7912 95.6124 42.6398 93.7329C42.29 89.2741 42.1543 84.7423 41.9454 80.2574C41.7366 75.8039 41.5173 71.3504 41.3711 66.8864C41.2354 62.7096 41.2145 58.4858 41.5956 54.3351C41.7836 52.2728 42.076 50.2314 42.4936 48.2578C42.7286 47.1457 43.1254 45.3445 44.0286 45.4646C44.6499 45.1774 45.3182 45.6473 45.6628 46.514C46.2528 47.9916 46.1223 50.1008 46.1588 51.7663C46.2632 56.3504 46.3833 60.9344 46.4982 65.5185C46.7279 74.7284 46.9576 83.9434 47.1874 93.1533C47.2343 94.9807 47.4014 96.9177 47.1978 98.7346C47.0934 99.643 46.8375 100.552 46.3781 101.063C46.66 101.836 46.9628 102.598 47.2604 103.355Z" fill="#9B4741"/>
<path d="M44.3159 48.4196C44.4046 48.0124 43.7938 47.8401 43.6841 48.2473C42.6869 52.043 42.0082 56.3712 42.9062 60.2452C42.9428 60.4175 43.1829 60.3653 43.1934 60.2035C43.5014 56.2094 43.4544 52.3667 44.3159 48.4196Z" fill="#952726"/>
<path d="M45.548 96.8133C44.3785 91.2738 43.9973 85.8074 43.8041 80.1635C43.7989 79.9494 43.5065 79.9599 43.4752 80.1635C42.7338 85.7656 43.4857 91.5505 45.1042 96.9334C45.1929 97.2205 45.6106 97.1004 45.548 96.8133Z" fill="#952726"/>
<path d="M51.8758 64.798L44.9684 76.7593C44.5403 77.5007 43.5953 77.7513 42.8539 77.3232L38.3273 74.7074C37.5859 74.2793 37.3353 73.3343 37.7582 72.5929L44.6656 60.6316C45.0937 59.8902 46.0387 59.6396 46.7801 60.0625L51.3067 62.6782C52.0533 63.1116 52.3039 64.0618 51.8758 64.798Z" fill="#020403"/>
<path d="M53.2387 53.5624C53.2387 57.4677 48.5242 62.4799 48.5242 62.4799C48.5242 62.4799 43.8096 57.4729 43.8096 53.5624C43.8096 49.6571 46.3157 48.3309 48.5242 48.3309C50.7326 48.3309 53.2387 49.6571 53.2387 53.5624Z" fill="#F15B35"/>
<path d="M51.2493 52.8262C51.2493 54.3299 50.0276 55.5516 48.524 55.5516C47.0203 55.5516 45.7986 54.3299 45.7986 52.8262C45.7986 51.3225 47.0203 50.1008 48.524 50.1008C50.0276 50.1061 51.2493 51.3225 51.2493 52.8262Z" fill="white"/>
<path d="M48.169 73.2143C48.1899 73.1517 48.1638 73.0838 48.122 73.042C47.72 72.5773 46.9786 72.901 46.5035 73.0629C47.1979 72.5669 47.6678 72.0657 47.2971 71.7263C46.9055 71.3608 45.7256 71.9299 45.3601 72.0761C45.12 72.1753 44.8746 72.2797 44.6292 72.3894C45.2296 71.8255 45.6473 71.2251 45.0625 70.9118C44.6396 70.6873 43.7207 71.1468 43.3396 71.3086C42.4102 71.7054 41.5697 72.2902 40.6351 72.687C40.9901 71.6532 41.7524 69.3664 40.4419 69.8259C40.1756 69.9146 39.9303 70.3532 39.7527 70.562C39.3559 71.0319 38.9644 71.5123 38.4997 71.9195C37.7427 72.5826 36.8499 73.0942 35.9519 73.5641C31.9369 75.1983 27.9741 76.963 24.1523 79.0201C20.5812 80.9414 17.2658 83.2439 13.8408 85.3845C13.9453 82.8262 14.1907 80.2835 14.5927 77.7514C14.6083 77.6678 14.5927 77.5947 14.5562 77.5373C14.0079 77.5843 10.6822 77.6939 7.47646 73.9557C7.47124 73.9609 7.466 73.9661 7.46078 73.9713C7.33025 73.9713 7.20495 74.034 7.1684 74.2011C6.14509 78.8426 4.94946 83.7712 6.0772 88.5066C6.474 90.1565 7.0953 92.4798 8.42666 93.6493C9.68492 94.751 11.9039 94.6361 13.4284 94.4429C18.2944 93.8321 22.372 90.6159 26.2878 87.9219C31.326 84.4551 36.2964 80.8579 41.4391 77.5477C41.507 77.5582 41.5801 77.553 41.6636 77.506C42.6556 76.916 44.0183 76.7646 45.0834 76.3051C45.6055 76.0806 46.7907 75.7778 46.9682 75.1722C46.9838 75.1095 46.9682 75.0364 46.9212 74.9947C46.6132 74.7127 46.0702 74.6971 45.5011 74.7858C45.9188 74.5822 46.3417 74.389 46.7646 74.175C47.224 73.9452 47.9654 73.7416 48.169 73.2143Z" fill="#FBBDA3"/>
<path d="M36.4113 44.3264C30.7465 48.3727 25.7604 45.0626 25.7604 45.0626C25.9171 44.3943 26.0058 43.7104 26.058 43.016C26.0894 42.5617 26.0998 42.1127 26.0894 41.6533C26.0371 36.9074 24.1523 32.2711 24.1523 32.2711L35.5498 37.4869C34.5422 40.2332 36.4113 44.3264 36.4113 44.3264Z" fill="#FBBDA3"/>
<path d="M35.743 42.4678C35.837 42.7915 35.9362 43.0891 36.025 43.3501C29.9477 44.1751 26.4705 40.1914 25.2488 36.1608C25.2331 36.1086 24.168 32.3286 24.1523 32.2764L35.5133 37.6175C35.0852 38.8966 35.2522 40.4368 35.5498 41.7212C35.6125 41.9822 35.6751 42.2328 35.743 42.4678Z" fill="#F8A47F"/>
<path d="M52.0325 17.5478C50.9831 15.616 47.0621 15.8614 45.3914 15.7987C41.7262 15.6526 38.0506 15.9188 34.4377 16.5558C26.6897 17.9237 19.4168 21.072 13.0367 25.6612C12.8697 25.7813 12.8592 25.9693 12.9271 26.1155C12.4729 26.1624 12.499 26.8725 12.9898 26.9143C21.7611 27.7183 30.6577 26.0163 39.2201 24.2933C41.2146 23.8913 54.4864 22.0692 52.0325 17.5478Z" fill="#33160D"/>
<path d="M21.8864 24.899C21.8864 24.899 18.5659 22.9777 17.3912 24.7633C16.2164 26.5489 18.9731 31.2373 21.6149 29.3212L21.8864 24.899Z" fill="#FBBDA3"/>
<path d="M42.2639 22.3408C42.2639 22.3408 45.005 19.6572 46.5869 21.0982C48.1689 22.534 46.6548 27.7654 43.6214 26.5594L42.2639 22.3408Z" fill="#FBBDA3"/>
<path d="M20.6645 25.6352C20.8629 27.1963 21.2179 28.6895 21.7035 30.0783C22.8678 33.4458 24.7995 36.2339 27.1438 38.0665C29.4097 39.8468 32.0568 40.7344 34.756 40.395C41.4024 39.5649 45.8872 31.5976 44.7595 22.6175C43.6317 13.6321 37.3248 7.01708 30.6732 7.85766C24.0164 8.6878 19.5367 16.6446 20.6645 25.6352Z" fill="#FBBDA3"/>
<path d="M44.0705 16.0546C42.4468 14.4152 37.4085 14.7702 35.3827 14.8381C30.8561 14.9842 22.1788 15.9449 20.5498 21.1503C20.435 21.2077 20.341 21.3121 20.3306 21.4896C20.1948 23.672 19.8241 26.246 21.1816 28.1412C21.2547 28.2456 21.3539 28.2822 21.4478 28.2769C21.6619 28.3814 21.9491 28.3292 21.9856 28.0368C22.2467 26.152 22.8001 24.4082 23.6929 22.7688C23.8913 22.8105 24.0949 22.8471 24.2933 22.8732C25.0608 22.9724 25.8387 22.9567 26.601 22.8262C27.9741 22.5965 29.6918 21.9595 30.5272 20.7744C30.5481 20.743 30.5429 20.7065 30.522 20.6804C30.5637 20.5655 30.5481 20.4298 30.4384 20.2992C32.1248 20.294 33.8269 20.6438 35.3671 21.3226C35.4611 21.3643 35.5864 21.3382 35.6125 21.2234C35.7221 20.7326 35.7482 20.1113 35.602 19.584C37.868 20.0539 40.0973 20.1844 42.3894 19.8659C43.2299 21.4687 43.8565 23.1342 44.4047 24.8572C44.4986 25.1548 44.9215 25.0921 44.9424 24.7841C45.0938 22.7479 45.7412 17.7409 44.0705 16.0546Z" fill="#9B4741"/>
<path d="M30.2555 25.0243C29.0077 25.1861 28.1149 26.293 28.2715 27.499C28.3028 27.7287 28.5169 27.8958 28.757 27.8645C28.9972 27.8332 29.1695 27.6191 29.1382 27.3894C29.0442 26.648 29.5924 25.9588 30.3599 25.8596C31.1274 25.7604 31.8322 26.2877 31.9262 27.0291C31.9575 27.2589 32.1768 27.4259 32.4118 27.3946C32.6519 27.3633 32.8242 27.1492 32.7929 26.9195C32.6467 25.7134 31.5033 24.8624 30.2555 25.0243Z" fill="#431D16"/>
<path d="M39.6483 23.9958C38.484 24.1472 37.6591 25.2488 37.8157 26.4549C37.847 26.6846 38.0507 26.8517 38.2752 26.8204C38.4997 26.7942 38.6563 26.5802 38.625 26.3505C38.531 25.6091 39.0374 24.9251 39.7579 24.8364C40.4784 24.7424 41.1363 25.2749 41.2302 26.0163C41.2616 26.246 41.4652 26.4131 41.6897 26.3818C41.9142 26.3557 42.0708 26.1416 42.0395 25.9119C41.8881 24.7058 40.8126 23.8444 39.6483 23.9958Z" fill="#431D16"/>
<path d="M36.8551 28.5015C36.5784 28.8617 35.174 29.0706 34.7511 28.8043C34.6519 28.7417 34.584 28.4649 34.5475 28.0629C34.4326 26.7681 34.6675 24.2359 35.221 24.1628C35.2627 24.1576 35.2993 24.1628 35.3463 24.1889C36.0668 24.5179 37.1214 28.1673 36.8551 28.5015Z" fill="#F8A47F"/>
<g opacity="0.6">
<path d="M36.855 28.5015C36.5783 28.8618 35.1739 29.0706 34.751 28.8043C34.6518 28.7417 34.5839 28.465 34.5474 28.063C35.9884 27.4208 35.6594 25.3585 35.3462 24.189C36.0667 24.5179 37.1213 28.1674 36.855 28.5015Z" fill="#33282C"/>
</g>
<path d="M33.1846 30.5533C33.1846 30.5533 34.7822 30.475 36.124 30.3027C37.471 30.1304 39.0321 29.8015 39.0321 29.8015C39.0321 29.8015 38.5152 31.8899 36.3589 32.1666C34.2131 32.4433 33.1846 30.5533 33.1846 30.5533Z" fill="white"/>
<path d="M31.9368 21.5941C30.3914 22.1893 28.8668 22.8263 27.3318 23.4319C27.2222 23.4737 27.1804 23.552 27.1752 23.6303C27.1021 23.6982 27.0708 23.7922 27.1439 23.8914C27.854 24.7789 29.0913 24.2412 30.0259 23.8653C30.6576 23.6094 31.3938 23.4006 31.9577 23.0351C32.4537 22.7166 32.5738 22.3616 32.7565 21.8917C32.9131 21.4584 32.2031 21.3644 31.9368 21.5941Z" fill="#9B4741"/>
<path d="M41.789 21.8343C40.5046 21.4688 39.2046 21.1555 37.9202 20.8005C37.8314 20.7744 37.7531 20.8162 37.6957 20.8788C37.6069 20.8945 37.5286 20.9571 37.5077 21.0772C37.3354 22.205 38.4058 22.4451 39.1941 22.654C39.7267 22.7949 40.2905 23.0247 40.8544 23.0403C41.3504 23.0508 41.6532 22.8263 42.0657 22.5339C42.4468 22.2624 42.097 21.7925 41.789 21.8343Z" fill="#9B4741"/>
<path d="M41.0996 30.5011C41.2719 31.8899 42.0133 33.0647 43.0523 33.8426C44.2897 31.347 44.9736 28.3188 44.9319 25.0713C42.4675 25.6091 40.7811 27.9481 41.0996 30.5011Z" fill="#F69886"/>
<path d="M21.7036 30.0731C22.8679 33.4406 24.7997 36.2286 27.1439 38.0612C29.1488 37.2311 30.4331 35.1374 30.1512 32.8872C29.8118 30.1827 27.3423 28.2666 24.6326 28.606C23.4683 28.7469 22.4502 29.2899 21.7036 30.0731Z" fill="#F69886"/>
<path d="M47.6679 14.6502C46.7281 14.6137 45.7935 14.6032 44.8537 14.6032C44.3839 11.0425 43.277 7.72194 40.3846 5.35682C37.5809 3.05957 33.8113 2.10412 30.2506 2.77241C22.3146 4.26562 18.1378 12.0606 19.3909 19.6206C18.9941 19.7929 18.5973 19.9652 18.2057 20.1479C15.9189 21.2287 11.4758 23.4372 12.5148 26.5907C12.6401 26.9666 13.0474 26.93 13.2196 26.7003C13.2458 26.6742 13.2771 26.6481 13.2979 26.6116C15.1044 23.5155 19.1089 22.2572 22.2729 21.046C25.348 19.8712 28.5276 18.9575 31.7594 18.3154C35.1218 17.6419 38.5416 17.2659 41.9665 17.1981C44.9321 17.1354 49.1976 16.7073 51.5836 18.8375C51.6724 18.9784 51.8029 19.0829 51.9491 19.156C52.1684 19.3282 52.4033 19.323 52.5965 19.2082C52.8054 19.1351 52.9724 18.9628 53.0299 18.6652C53.6512 15.2089 50.3515 14.7599 47.6679 14.6502Z" fill="#542310"/>
<path d="M44.4934 12.5565C44.6448 13.2248 44.7596 13.914 44.8484 14.6032C34.3228 14.0863 19.3907 19.6153 19.3907 19.6153C19.3072 19.0985 19.2498 18.5868 19.208 18.0647C26.9403 14.0341 35.8839 12.9115 44.4934 12.5565Z" fill="#BA6444"/>
<path d="M47.2971 65.7431H60.6995C62.8035 65.7431 64.5108 67.4503 64.5108 69.5544C64.5108 71.6585 66.2181 73.3657 68.3222 73.3657H99.7683C103.125 73.3657 105.851 70.6404 105.851 67.2833V37.4399" stroke="#020403" stroke-width="2" stroke-miterlimit="10"/>
<path d="M105.851 58.2247H179.947C182.114 58.2247 183.873 59.9842 183.873 62.1509V65.1844" stroke="#020403" stroke-width="2" stroke-miterlimit="10"/>
<path d="M119.143 14.812C119.143 25.8753 105.793 40.0556 105.793 40.0556C105.793 40.0556 92.4431 25.8753 92.4431 14.812C92.4431 3.74869 99.5385 5.43737e-06 105.793 5.43737e-06C112.043 -0.00521558 119.143 3.74869 119.143 14.812Z" fill="#F15B35"/>
<path d="M113.505 12.7289C113.505 16.9892 110.049 20.4455 105.788 20.4455C101.528 20.4455 98.0715 16.9944 98.0715 12.7289C98.0715 8.46852 101.523 5.01221 105.788 5.01221C110.054 5.01221 113.505 8.46852 113.505 12.7289Z" fill="white"/>
<path d="M190.556 72.5982C190.556 78.1377 183.874 85.233 183.874 85.233C183.874 85.233 177.191 78.1324 177.191 72.5982C177.191 67.0587 180.746 65.1843 183.874 65.1843C187.001 65.1843 190.556 67.0639 190.556 72.5982Z" fill="#F15B35"/>
<path d="M187.737 71.5592C187.737 73.6946 186.009 75.4228 183.874 75.4228C181.743 75.4228 180.01 73.6946 180.01 71.5592C180.01 69.4291 181.738 67.6957 183.874 67.6957C186.004 67.6957 187.737 69.4238 187.737 71.5592Z" fill="white"/>
</svg>
