<?xml version="1.0" encoding="utf-8"?>
<!-- Generator: Adobe Illustrator 27.5.0, SVG Export Plug-In . SVG Version: 6.00 Build 0)  -->
<svg version="1.1" xmlns="http://www.w3.org/2000/svg" xmlns:xlink="http://www.w3.org/1999/xlink" x="0px" y="0px"
	 viewBox="0 0 750 500" style="enable-background:new 0 0 750 500;" xml:space="preserve">
<g id="BACKGROUND">
	<rect style="fill-rule:evenodd;clip-rule:evenodd;fill:#FFFFFF;" width="750" height="500"/>
	<path style="fill-rule:evenodd;clip-rule:evenodd;fill:#E7EAF3;" d="M197.358,458.264c157.674,41.374,250.744-44.477,328.952-13.11
		c78.208,31.367,201.379,8.509,187.316-163.367C699.311,106.839,538.19,43.272,379.372,52.596
		C1.553,74.778-25.115,399.889,197.358,458.264z"/>
</g>
<g id="OBJECTS">
	<g>
		<path style="fill-rule:evenodd;clip-rule:evenodd;fill:#CDD1DC;" d="M517.651,442.185c2.908,0.846,5.796,1.82,8.66,2.969
			c39.566,15.868,90.631,17.841,129.622-6.321V142.609c-2.135-2.344-4.315-4.642-6.543-6.888h-73.145c-6.885,0-12.5,5.615-12.5,12.5
			v31.25H530.15c-6.885,0-12.5,5.615-12.5,12.5V442.185z"/>
		<path style="fill-rule:evenodd;clip-rule:evenodd;fill:#E7EAF3;" d="M627.025,451.624c52.422-15.295,95.207-64.662,86.602-169.837
			c-1.855-22.673-6.196-43.459-12.658-62.475h-9.1c-6.885,0-12.5,5.616-12.5,12.501v37.5h-39.844c-6.883,0-12.497,5.613-12.5,12.495
			V451.624z"/>
		<path style="fill-rule:evenodd;clip-rule:evenodd;fill:#CDD1DC;" d="M242.636,467.071
			c96.573,12.253,166.802-20.918,225.277-27.762V117.963c0-6.885-5.615-12.501-12.5-12.501h-84.999
			c-6.885,0-12.501,5.616-12.501,12.501v77.499h-42.917c-6.885,0-12.5,5.616-12.5,12.501v18.75H260.83
			c-6.885,0-12.5,5.615-12.5,12.5v125C239.179,403.154,238.044,437.238,242.636,467.071z"/>
		<path style="fill-rule:evenodd;clip-rule:evenodd;fill:#E7EAF3;" d="M417.875,449.156c41.056-9.866,76.026-17.001,108.435-4.002
			c1.776,0.712,3.582,1.385,5.402,2.041V215.408c0-6.885-5.615-12.5-12.5-12.5h-88.838c-6.885,0-12.5,5.615-12.5,12.5v233.745
			L417.875,449.156z"/>
	</g>
	<g>
		<path style="fill-rule:evenodd;clip-rule:evenodd;fill:#FFFFFF;" d="M197.358,458.264
			c157.674,41.374,250.744-44.477,328.952-13.11c67.061,26.895,167.169,13.913,185.483-98.687H66.237
			C84.824,397.775,129.463,440.45,197.358,458.264z"/>
		<path style="fill-rule:evenodd;clip-rule:evenodd;fill:#A1B4E2;" d="M597.42,417.623c24.737,0,44.791,4.313,44.791,9.635
			c0,5.321-20.054,9.635-44.791,9.635c-24.738,0-44.792-4.315-44.792-9.635c0-0.987,0.692-1.941,1.975-2.837
			c-11.039,0.813-23.665,1.275-37.08,1.275c-12.783,0-24.851-0.42-35.509-1.162c5.42,1.257,8.434,2.646,8.434,4.105
			c0,5.653-45.076,10.236-100.681,10.236c-55.606,0-100.681-4.583-100.681-10.236c0-5.652,45.076-10.235,100.681-10.235
			c22.655,0,43.56,0.761,60.384,2.045c-6.962-1.6-10.963-3.47-10.963-5.468c0-5.92,35.072-10.717,78.335-10.717
			c43.263,0,78.334,4.798,78.334,10.717c0,0.926-0.86,1.825-2.475,2.682C594.712,417.636,596.058,417.623,597.42,417.623
			L597.42,417.623z M542.213,429.991c-2.804,0-5.078,0.991-5.078,2.213s2.274,2.213,5.078,2.213c2.805,0,5.079-0.991,5.079-2.213
			S545.018,429.991,542.213,429.991L542.213,429.991z M287.525,439.011c5.737,0,10.387,1.748,10.387,3.906
			c0,2.157-4.65,3.906-10.387,3.906c-5.735,0-10.385-1.749-10.385-3.906C277.139,440.759,281.789,439.011,287.525,439.011z"/>
	</g>
	<g>
		<g>
			<path style="fill-rule:evenodd;clip-rule:evenodd;fill:#96C042;" d="M699.118,339.174c-1.147-0.112-2.275-0.074-3.363,0.098
				c-2.667-17.19-19.278-31.501-40.631-33.58c-22.253-2.166-42.019,9.697-47.026,27.21c-1.846-0.838-3.87-1.395-6.016-1.604
				c-9.899-0.964-18.671,5.815-19.685,15.168h127.321C707.742,342.514,703.84,339.634,699.118,339.174L699.118,339.174z
				 M617.845,303.432c1.509,0,2.734,1.224,2.734,2.735c0,1.509-1.225,2.734-2.734,2.734c-1.511,0-2.734-1.225-2.734-2.734
				C615.111,304.656,616.334,303.432,617.845,303.432L617.845,303.432z M708.971,326.009l-0.125,4.61
				c-0.069,2.535-2.199,4.552-4.734,4.484l-4.611-0.124l0.125-4.611c0.07-2.535,2.2-4.552,4.735-4.483L708.971,326.009
				L708.971,326.009z M593.446,317.059l5.695-0.308c3.131-0.169,5.833,2.255,6.001,5.387l0.308,5.695l-5.695,0.307
				c-3.132,0.169-5.832-2.255-6.002-5.387L593.446,317.059z"/>
			<path style="fill-rule:evenodd;clip-rule:evenodd;fill:#BDD95B;" d="M691.09,346.467c-3.999-6.375-12.173-11.081-21.988-11.83
				c-7.511-0.573-14.521,1.281-19.716,4.725c0.004-0.092,0.006-0.184,0.006-0.277c0-4.09-3.316-7.405-7.407-7.405
				c-4.09,0-7.405,3.315-7.405,7.405s3.315,7.405,7.405,7.405c0.212,0,0.422-0.009,0.63-0.026l-0.003,0.003H691.09z"/>
		</g>
		<g>
			<g>
				<path style="fill-rule:evenodd;clip-rule:evenodd;fill:#FFFFFF;" d="M496.94,408.578h-4.525
					c-3.566,10.586-12.343,18.001-22.832,18.001h-11.206c-10.49,0-19.725-7.415-23.949-18.001h-60.365
					c-3.602,10.499-12.34,17.837-22.776,17.837c-1.056,0-2.099-0.077-3.126-0.222l-4.961-0.001c-1.02,0.147-2.061,0.223-3.119,0.223
					c-10.435,0-19.629-7.338-23.882-17.837h-38.779c-3.079,0-5.674-2.518-5.77-5.596l-0.261-8.421
					c-0.096-3.078,2.342-5.595,5.428-5.595l-0.4-12.89h-0.99c-2.607,0-4.806-2.132-4.886-4.74l-0.329-10.629
					c-0.082-2.607,1.985-4.74,4.592-4.74h4.186c5.429-13.165,18.354-22.41,33.62-22.41h36.265c0,0,18.66-60.129,50.791-78.152
					c2.272-1.275,4.517-1.855,7.156-1.855h39.525l0,0l-0.274-8.838c-0.151-4.861,3.703-8.838,8.564-8.838h23.355h9.23
					C487.22,235.874,487.267,235.874,496.94,408.578z M496.94,408.578h99.747c9.542,23.923,38.721,23.923,46.781,0h31.174
					c3.079,0,5.518-2.518,5.423-5.596l-0.261-8.421c-0.096-3.078-2.691-5.595-5.77-5.595h-3.058l-2.485-17.898
					c-2.849-20.511-18.043-37.51-38.673-37.51h-14.261c-11.78-33.228-38.183-63.586-48.995-75.107
					c-3.037-3.235-6.848-4.9-11.215-4.9h-45.179l0,0l-1.779-8.838c-0.978-4.861-5.755-8.838-10.617-8.838h-10.553h0.025
					L496.94,408.578z"/>
				<g>
					<g>
						<path style="fill-rule:evenodd;clip-rule:evenodd;fill:#232446;" d="M336.615,371.81c1.925,0,3.8,0.25,5.603,0.724
							c1.804-0.474,3.678-0.724,5.603-0.724c14.055,0,25.448,13.31,25.448,29.729c0,16.417-11.393,29.729-25.448,29.729
							c-1.056,0-2.097-0.077-3.119-0.223h-4.96h-0.001c-1.025,0.146-2.068,0.223-3.126,0.223c-14.055,0-25.448-13.311-25.448-29.729
							C311.167,385.12,322.56,371.81,336.615,371.81z"/>
						<path style="fill-rule:evenodd;clip-rule:evenodd;fill:#232446;" d="M616.637,374.547c8.72,4.716,14.771,15.027,14.771,26.991
							c0,12.091-6.18,22.496-15.051,27.141c0.793,1.367,0.809,2.588,0.809,2.588h-11.206c-14.055,0-25.449-13.311-25.449-29.729
							c0-14.675,9.102-26.865,21.072-29.289l0.175-0.44h4.202h11.206L616.637,374.547z"/>
						<path style="fill-rule:evenodd;clip-rule:evenodd;fill:#232446;" d="M466.119,374.845
							c8.432,4.842,14.236,14.975,14.236,26.693c0,11.669-5.757,21.766-14.133,26.633v0.003l-0.109,3.093h-11.206
							c-14.055,0-25.448-13.311-25.448-29.729c0-16.419,11.393-29.729,25.448-29.729h11.206L466.119,374.845z"/>
					</g>
					<g>
						<path style="fill-rule:evenodd;clip-rule:evenodd;fill:#232446;" d="M494.028,413.264h-53.106
							c-1.181-3.646-1.83-7.597-1.83-11.726c0-18.312,12.708-33.156,28.383-33.156c15.675,0,28.382,14.844,28.382,33.156
							C495.858,405.667,495.21,409.618,494.028,413.264z"/>
						<path style="fill-rule:evenodd;clip-rule:evenodd;fill:#232446;" d="M644.613,413.264h-53.107
							c-1.18-3.646-1.828-7.597-1.828-11.726c0-18.312,12.708-33.156,28.382-33.156c15.675,0,28.382,14.844,28.382,33.156
							C646.442,405.667,645.795,409.618,644.613,413.264z"/>
						<g>
							<path style="fill-rule:evenodd;clip-rule:evenodd;fill:#EEC16E;" d="M274.511,413.264h166.411
								c-1.181-3.646-1.83-7.597-1.83-11.726c0-18.312,12.708-33.156,28.383-33.156c15.675,0,28.382,14.844,28.382,33.156
								c0,4.129-0.648,8.08-1.83,11.726h97.478c-1.18-3.646-1.828-7.597-1.828-11.726c0-18.312,12.708-33.156,28.382-33.156
								c15.675,0,28.382,14.844,28.382,33.156c0,4.129-0.647,8.08-1.828,11.726h26.175l-4.047-37.511
								c-2.212-20.511-16.881-37.509-37.511-37.509h-14.26c-10.752-33.228-36.213-63.586-46.668-75.106
								c-2.935-3.234-6.696-4.9-11.064-4.9H408.713c-2.639,0-4.903,0.581-7.213,1.855c-32.69,18.023-53.215,78.151-53.215,78.151
								h-36.265c-20.629,0-37.51,16.88-37.51,37.509V413.264z"/>
							<path style="fill-rule:evenodd;clip-rule:evenodd;fill:#E69646;" d="M404.633,413.264h36.29
								c-1.181-3.646-1.83-7.597-1.83-11.726c0-18.312,12.708-33.156,28.383-33.156c15.675,0,28.382,14.844,28.382,33.156
								c0,4.129-0.648,8.08-1.83,11.726h97.478c-1.18-3.646-1.828-7.597-1.828-11.726c0-18.312,12.708-33.156,28.382-33.156
								c15.675,0,28.382,14.844,28.382,33.156c0,4.129-0.647,8.08-1.828,11.726h26.175l-4.047-37.511
								c-2.212-20.511-16.881-37.509-37.511-37.509h-14.26c-10.752-33.228-36.213-63.586-46.668-75.106
								c-2.935-3.234-6.696-4.9-11.064-4.9h-42.591c-28.753,12.846-49.149,52.962-52.181,80.313h-4.918h-15.798h-4.395
								c-18.391,2.368-32.724,18.194-32.724,37.202V413.264z"/>
							<path style="fill-rule:evenodd;clip-rule:evenodd;fill:#E38244;" d="M619.274,368.414
								c15.112,0.743,27.168,15.288,27.168,33.124c0,4.129-0.647,8.08-1.828,11.726h26.175l-4.047-37.511
								c-2.213-20.511-16.881-37.509-37.509-37.509h-14.261c-10.752-33.227-36.213-63.586-46.668-75.106
								c-2.935-3.234-6.696-4.9-11.064-4.9h-1.408c25.071,24.621,37.874,79.964,37.874,79.964
								C606.642,343.62,614.566,354.924,619.274,368.414z"/>
							<path style="fill-rule:evenodd;clip-rule:evenodd;fill:#E38244;" d="M274.505,413.264h161.678h4.385h0.353l-0.005-0.014
								c2.25-0.178,4.036-2.075,4.036-4.369v-10.845c0-2.412-1.974-4.384-4.385-4.384h-0.665h-3.72H274.505
								c-3.078,0-5.595,2.518-5.595,5.596v8.421C268.91,410.746,271.428,413.264,274.505,413.264L274.505,413.264z M494.028,413.264
								h97.478c-1.18-3.646-1.828-7.597-1.828-11.726c0-2.718,0.283-5.359,0.81-7.886h-95.441c0.527,2.528,0.81,5.168,0.81,7.886
								C495.858,405.667,495.21,409.618,494.028,413.264L494.028,413.264z M644.613,413.264h27.117c3.079,0,5.596-2.518,5.596-5.595
								v-8.421c0-3.078-2.517-5.596-5.596-5.596h-26.099c0.528,2.528,0.81,5.168,0.81,7.886
								C646.442,405.667,645.795,409.618,644.613,413.264z"/>
						</g>
					</g>
					<g>
						<path style="fill-rule:evenodd;clip-rule:evenodd;fill:#EEC16E;" d="M448.238,258.238h50.26V249.4
							c0-4.862-3.977-8.838-8.838-8.838h-32.585c-4.861,0-8.838,3.977-8.838,8.838V258.238z"/>
						<path style="fill-rule:evenodd;clip-rule:evenodd;fill:#E69646;" d="M498.499,258.238h13.562l-1.504-8.839
							c-0.828-4.86-5.482-8.838-10.343-8.838h-10.553l0.22,0.004h0.007c4.758,0.12,8.611,4.05,8.611,8.835V258.238z"/>
					</g>
					<g>
						<path style="fill-rule:evenodd;clip-rule:evenodd;fill:#232446;" d="M470.965,332.948
							c6.894-28.196,24.628-61.539,45.665-70.135l17.369,0.03c2.902,18.915,5.427,44.205,8.068,70.106H470.965L470.965,332.948z
							 M540.199,262.728c2.91,19.342,6.339,44.6,8.887,70.22h56.615c-15.881-40.075-31.666-57.212-39.729-66
							c-2.728-2.974-6.368-4.22-10.404-4.22H540.199z"/>
						<g>
							<path style="fill-rule:evenodd;clip-rule:evenodd;fill:#3A3C6C;" d="M407.1,262.813h92.163c0,0-30.818,23.765-40.156,70.135
								H356.38c0,0,20.108-51.399,46.56-68.886C404.229,263.211,405.555,262.813,407.1,262.813z"/>
							<path style="fill-rule:evenodd;clip-rule:evenodd;fill:#232446;" d="M359.246,332.948
								c4.983-11.763,23.822-53.21,47.267-66.992h89.147c2.24-2.092,3.603-3.143,3.603-3.143H407.1c-1.545,0-2.871,0.398-4.16,1.25
								c-26.453,17.486-46.56,68.886-46.56,68.886H359.246z"/>
						</g>
					</g>
					<g>
						<path style="fill-rule:evenodd;clip-rule:evenodd;fill:#FFFFFF;" d="M273.521,360.655h28.571c2.607,0,4.737,2.132,4.737,4.739
							v10.63c0,2.607-2.131,4.738-4.737,4.738h-28.571c-2.607,0-4.739-2.132-4.739-4.738v-10.63
							C268.782,362.788,270.914,360.655,273.521,360.655z"/>
						<path style="fill-rule:evenodd;clip-rule:evenodd;fill:#FFFFFF;" d="M368.152,360.655h28.571c2.608,0,4.738,2.132,4.738,4.739
							v10.63c0,2.607-2.13,4.738-4.738,4.738h-28.571c-2.606,0-4.738-2.132-4.738-4.738v-10.63
							C363.414,362.788,365.546,360.655,368.152,360.655z"/>
						<path style="fill-rule:evenodd;clip-rule:evenodd;fill:#E69646;" d="M335.121,361.528h0.003
							c6.355,0,11.553,5.198,11.553,11.553v6.155c0,6.355-5.198,11.553-11.553,11.553h-0.003c-6.355,0-11.554-5.198-11.554-11.553
							v-6.155C323.567,366.726,328.766,361.528,335.121,361.528z"/>
						<path style="fill-rule:evenodd;clip-rule:evenodd;fill:#FFFFFF;" d="M333.1,361.35L333.1,361.35
							c4.65,0,8.681,2.785,10.51,6.769c-2.124-2.592-5.346-4.254-8.939-4.254l0,0c-6.354,0-11.554,5.199-11.554,11.555v6.152
							c0,1.705,0.375,3.326,1.044,4.786c-1.633-1.994-2.616-4.538-2.616-7.3v-6.152C321.546,366.549,326.745,361.35,333.1,361.35z"
							/>
					</g>
					<g>
						<g>
							<rect x="477.871" y="343.967" style="fill-rule:evenodd;clip-rule:evenodd;fill:#232446;" width="8.561" height="8.56"/>
							<rect x="486.432" y="352.528" style="fill-rule:evenodd;clip-rule:evenodd;fill:#232446;" width="8.56" height="8.56"/>
							<rect x="494.991" y="343.967" style="fill-rule:evenodd;clip-rule:evenodd;fill:#232446;" width="8.56" height="8.56"/>
							<rect x="503.55" y="352.528" style="fill-rule:evenodd;clip-rule:evenodd;fill:#232446;" width="8.561" height="8.56"/>
							<rect x="512.111" y="343.967" style="fill-rule:evenodd;clip-rule:evenodd;fill:#232446;" width="8.56" height="8.56"/>
						</g>
						<path style="fill-rule:evenodd;clip-rule:evenodd;fill:#E38244;" d="M557.852,341.345h8.368c1.773,0,3.222,1.45,3.222,3.222
							l0,0c0,1.773-1.449,3.222-3.222,3.222h-8.368c-1.773,0-3.222-1.449-3.222-3.222l0,0
							C554.63,342.795,556.079,341.345,557.852,341.345z"/>
						<path style="fill-rule:evenodd;clip-rule:evenodd;fill:#3A3C6C;" d="M404.285,391.527
							c-0.039-0.176-14.646-61.725,58.204-53.332l-0.041,0.707c-71.894-8.282-57.508,52.329-57.469,52.503L404.285,391.527z"/>
					</g>
					<g>
						<path style="fill-rule:evenodd;clip-rule:evenodd;fill:#3A3C6C;" d="M466.113,431.266c14.016,0,25.449-13.355,25.449-29.728
							c0-16.374-11.433-29.729-25.449-29.729s-25.448,13.355-25.448,29.729C440.665,417.911,452.096,431.266,466.113,431.266z"/>
						<path style="fill-rule:evenodd;clip-rule:evenodd;fill:#232446;" d="M466.113,417.265c7.416,0,13.465-7.067,13.465-15.729
							c0-8.662-6.048-15.727-13.465-15.727s-13.463,7.065-13.463,15.727C452.649,410.198,458.697,417.265,466.113,417.265z"/>
						<path style="fill-rule:evenodd;clip-rule:evenodd;fill:#3A3C6C;" d="M466.113,410.242c4.105,0,7.453-3.91,7.453-8.706
							c0-4.795-3.348-8.705-7.453-8.705c-4.104,0-7.452,3.909-7.452,8.705C458.661,406.331,462.009,410.242,466.113,410.242z"/>
						<path style="fill-rule:evenodd;clip-rule:evenodd;fill:#FFFFFF;" d="M466.375,369.137c6.711,0,12.815,3.037,17.363,7.996
							c-4.121-3.354-9.13-5.324-14.534-5.324c-14.054,0-25.448,13.311-25.448,29.73c0,8.578,3.111,16.306,8.087,21.732
							c-6.598-5.372-10.917-14.298-10.917-24.405C440.926,382.447,452.32,369.137,466.375,369.137z"/>
						<path style="fill-rule:evenodd;clip-rule:evenodd;fill:#FFFFFF;" d="M490.592,375.684c12.961,0,23.47,12.275,23.47,27.417
							c0,3.787-0.658,7.394-1.846,10.675c0.934-2.832,1.447-5.909,1.447-9.126c0-14.029-9.736-25.403-21.745-25.403
							c-12.01,0-21.745,11.374-21.745,25.403s9.736,25.402,21.745,25.402c2.753,0,5.387-0.599,7.81-1.689
							c-2.808,1.388-5.895,2.155-9.136,2.155c-12.961,0-23.47-12.274-23.47-27.416C467.123,387.959,477.631,375.684,490.592,375.684
							z"/>
					</g>
					<g>
						<path style="fill-rule:evenodd;clip-rule:evenodd;fill:#3A3C6C;" d="M617.166,431.266c14.016,0,25.449-13.355,25.449-29.728
							c0-16.374-11.433-29.729-25.449-29.729s-25.448,13.355-25.448,29.729C591.718,417.911,603.149,431.266,617.166,431.266z"/>
						<path style="fill-rule:evenodd;clip-rule:evenodd;fill:#232446;" d="M617.166,417.265c7.415,0,13.463-7.067,13.463-15.729
							c0-8.662-6.048-15.727-13.463-15.727c-7.415,0-13.463,7.065-13.463,15.727C603.702,410.198,609.751,417.265,617.166,417.265z"
							/>
						<path style="fill-rule:evenodd;clip-rule:evenodd;fill:#3A3C6C;" d="M617.165,410.242c4.104,0,7.453-3.91,7.453-8.706
							c0-4.795-3.349-8.705-7.453-8.705c-4.104,0-7.452,3.909-7.452,8.705C609.713,406.331,613.06,410.242,617.165,410.242z"/>
						<path style="fill-rule:evenodd;clip-rule:evenodd;fill:#FFFFFF;" d="M616.825,369.137c6.711,0,12.815,3.037,17.362,7.996
							c-4.121-3.354-9.13-5.324-14.534-5.324c-14.054,0-25.448,13.311-25.448,29.73c0,8.578,3.111,16.306,8.087,21.732
							c-6.598-5.372-10.917-14.298-10.917-24.405C591.376,382.447,602.77,369.137,616.825,369.137z"/>
						<path style="fill-rule:evenodd;clip-rule:evenodd;fill:#FFFFFF;" d="M638.884,376.868c12.656,0,22.915,11.985,22.915,26.769
							c0,14.783-10.259,26.767-22.915,26.767c-12.656,0-22.915-11.985-22.915-26.767
							C615.969,388.853,626.228,376.868,638.884,376.868L638.884,376.868z M639.812,380.198c-11.594,0-20.993,10.98-20.993,24.523
							c0,13.544,9.399,24.523,20.993,24.523s20.993-10.98,20.993-24.523C660.805,391.178,651.406,380.198,639.812,380.198z"/>
					</g>
				</g>
			</g>
			<g>
				<g>
					<circle style="fill-rule:evenodd;clip-rule:evenodd;fill:#FFFFFF;" cx="402.023" cy="166.376" r="20.898"/>
					<g>
						<circle style="fill-rule:evenodd;clip-rule:evenodd;fill:#3A3C6C;" cx="402.023" cy="161.689" r="9.357"/>
						<path style="fill-rule:evenodd;clip-rule:evenodd;fill:#3A3C6C;" d="M415.968,181.94c-3.699,3.317-8.586,5.335-13.945,5.335
							s-10.246-2.018-13.945-5.335c2.671-4.963,7.913-8.338,13.945-8.338C408.054,173.601,413.297,176.977,415.968,181.94z"/>
					</g>
				</g>
				<g>
					<rect x="436.785" y="151.324" style="fill-rule:evenodd;clip-rule:evenodd;fill:#3A3C6C;" width="34.961" height="2.953"/>
					<rect x="436.785" y="160.209" style="fill-rule:evenodd;clip-rule:evenodd;fill:#3A3C6C;" width="12.5" height="2.953"/>
				</g>
				<path style="fill-rule:evenodd;clip-rule:evenodd;fill:#FFFFFF;" d="M402.023,188.029c1.645,0,2.979,1.333,2.979,2.979
					c0,1.645-1.334,2.979-2.979,2.979c-1.645,0-2.979-1.334-2.979-2.979C399.044,189.362,400.377,188.029,402.023,188.029
					L402.023,188.029z M402.76,254.284h-1.476v-2.953h1.476V254.284L402.76,254.284z M402.76,243.949h-1.476v-2.953h1.476V243.949
					L402.76,243.949z M402.76,233.615h-1.476v-2.953h1.476V233.615L402.76,233.615z M402.76,223.28h-1.476v-2.953h1.476V223.28
					L402.76,223.28z M402.76,212.945h-1.476v-2.952h1.476V212.945L402.76,212.945z M402.76,202.61h-1.476v-2.953h1.476V202.61z"/>
			</g>
		</g>
	</g>
	<g>
		<g>
			<path style="fill-rule:evenodd;clip-rule:evenodd;fill:#FFFFFF;" d="M290.831,262.462H166.027
				c0.683-8.69,9.471-18.652,23.046-11.717c9.998-32.208,60.03-41.226,71.875,4.101C261.73,248.595,286.339,245.47,290.831,262.462
				L290.831,262.462z M297.667,262.462h15.82C312.167,254.447,296.61,252.321,297.667,262.462z"/>
			<path style="fill-rule:evenodd;clip-rule:evenodd;fill:#FFFFFF;" d="M598.894,214.028h124.805
				c-0.684-8.692-9.473-18.653-23.047-11.719c-9.997-32.207-60.029-41.225-71.875,4.102
				C627.997,200.161,603.387,197.036,598.894,214.028L598.894,214.028z M592.059,214.028h-15.82
				C577.56,206.012,593.116,203.886,592.059,214.028z"/>
		</g>
		<g>
			<g>
				<path style="fill-rule:evenodd;clip-rule:evenodd;fill:#CF4970;" d="M715.654,281.472c0,8.963-8.353,14.826-14.063,20.537
					c-0.993,0.992-2.612,0.992-3.605,0c-5.711-5.711-14.062-11.574-14.062-20.537c0-8.76,7.103-15.865,15.865-15.865
					C708.549,265.607,715.654,272.711,715.654,281.472z"/>
				<path style="fill-rule:evenodd;clip-rule:evenodd;fill:#FFFFFF;" d="M699.788,287.147c4.458,0,8.094-3.635,8.094-8.094
					c0-4.458-3.637-8.094-8.094-8.094c-4.457,0-8.093,3.635-8.093,8.094C691.695,283.511,695.33,287.147,699.788,287.147z"/>
			</g>
			<g>
				<path style="fill-rule:evenodd;clip-rule:evenodd;fill:#CF4970;" d="M50.713,279.223c0,6.875-6.408,11.373-10.787,15.753
					c-0.762,0.762-2.004,0.762-2.766,0c-4.379-4.381-10.787-8.877-10.787-15.753c0-6.721,5.45-12.17,12.17-12.17
					C45.264,267.053,50.713,272.502,50.713,279.223z"/>
				<path style="fill-rule:evenodd;clip-rule:evenodd;fill:#FFFFFF;" d="M38.544,283.575c3.419,0,6.209-2.79,6.209-6.209
					c0-3.42-2.79-6.209-6.209-6.209c-3.42,0-6.209,2.789-6.209,6.209C32.335,280.785,35.125,283.575,38.544,283.575z"/>
			</g>
		</g>
	</g>
	<g>
		<g>
			<g>
				<path style="fill-rule:evenodd;clip-rule:evenodd;fill:#232446;" d="M195.619,301.04l9.142,17.268l1.677,142.217
					c-3.003-0.707-6.029-1.46-9.08-2.26c-12.352-3.241-23.932-7.306-34.727-12.095c-2.374-33.453-3.723-64.962-6.626-99.421
					c0,0,12.189-11.173,12.189-39.614L195.619,301.04z"/>
				<g>
					<path style="fill-rule:evenodd;clip-rule:evenodd;fill:#3A3C6C;" d="M128.072,296.468l-22.32,23.466
						c0,0-2.298,34.694-1.489,86.457c12.035,12.19,26.275,22.998,42.644,31.996c1.285-35.991,3.896-72.785,9.098-91.639
						c0,0,12.119-11.113,12.187-39.378L128.072,296.468z"/>
					<path style="fill-rule:evenodd;clip-rule:evenodd;fill:#232446;" d="M104.232,404.253l0.031,2.139
						c12.035,12.19,26.275,22.998,42.644,31.996c0.299-8.363,0.668-16.771,1.127-24.985
						C130.025,415.866,115.264,410.855,104.232,404.253z"/>
					<path style="fill-rule:evenodd;clip-rule:evenodd;fill:#232446;" d="M128.072,296.468l-22.32,23.466
						c0,0-0.269,4.062-0.59,11.47c2.592,2.37,6.147,4.642,10.996,6.226c-0.33,13.768-0.882,43.81-0.518,79.312
						c0.197,0.167,0.397,0.331,0.594,0.497c-0.375-35.568,0.176-65.72,0.508-79.624c9.737,3.003,24.528,3.243,46.914-3.809
						c2.431-6.246,4.508-14.981,4.535-26.635L128.072,296.468z"/>
				</g>
			</g>
			<g>
				<path style="fill-rule:evenodd;clip-rule:evenodd;fill:#EBB39D;" d="M220.133,55.661l-0.191-0.967l-0.587-18.18
					c-0.042-1.349,0.993-2.49,2.341-2.576l0.303-0.019c1.349-0.085,2.522,0.919,2.647,2.264l1.723,18.539l0.358-21.983
					c0.021-1.326,1.07-2.402,2.395-2.457l1.378-0.058c0.691-0.028,1.296,0.194,1.803,0.664c0.507,0.47,0.776,1.056,0.8,1.747
					l0.76,21.704l2.613-19.154c0.1-0.733,0.47-1.325,1.084-1.737c0.614-0.412,1.303-0.53,2.02-0.345l0.763,0.199
					c1.192,0.308,1.97,1.41,1.864,2.636l-0.315,3.619l1.964,0.547c1.079,0.301,1.805,1.236,1.828,2.356l0.286,13.768
					c2.293,10.283,2.523,19.327,0.075,24.891l-20.809,0.419l-8.386-13.384l-5.468-16.666
					C216.914,47.907,220.133,55.661,220.133,55.661L220.133,55.661z"/>
				<path style="fill-rule:evenodd;clip-rule:evenodd;fill:#F1F2FF;" d="M196.537,221.464
					c-26.992-15.044,29.764-73.217,28.697-139.927c3.239-6.91,12.336-9.068,20.848-0.419
					C263.844,140.646,223.53,236.508,196.537,221.464z"/>
				<path style="fill-rule:evenodd;clip-rule:evenodd;fill:#FFFFFF;" d="M236.387,79.451c3.095,0.377,6.5,2.06,9.815,5.427
					c14.315,47.981-10.147,120.224-33.894,135.279c23.198-16.933,45.202-90.371,29.414-137.122
					C239.934,81.399,238.138,80.225,236.387,79.451z"/>
			</g>
			<g>
				<path style="fill-rule:evenodd;clip-rule:evenodd;fill:#F1F2FF;" d="M177.716,170.836l40.758,19.995
					c9.016,43.671-14.776,87.863-13.713,127.477c-30.138,11.219-79.547,14.366-99.009,1.626c0,0-3.648-81.842-2.072-133.023
					l40.516-16.075H177.716z"/>
				<path style="fill-rule:evenodd;clip-rule:evenodd;fill:#CCCEEA;" d="M214.689,255.679c-1.696,7.787-3.528,15.509-5.153,23.133
					c-8,15.92-24.558,27-43.266,27l0,0c-25.851,0-46.402-21.151-45.671-47.002l1.06-37.445c0.731-25.851,22.48-47.001,48.329-47.001
					h0.001c25.851,0,46.402,21.15,45.671,47.001L214.689,255.679z"/>
			</g>
			<g>
				<polygon style="fill-rule:evenodd;clip-rule:evenodd;fill:#DC8C8C;" points="60.142,324.007 57.531,319.513 49.856,321.729 
					55.324,326.22 				"/>
				<path style="fill-rule:evenodd;clip-rule:evenodd;fill:#3A3C6C;" d="M27.396,335.65l32.013,21.766
					c1.069,0.725,2.501,0.524,3.327-0.469l12.627-15.18c0.452-0.545,0.643-1.18,0.561-1.884c-0.081-0.705-0.41-1.28-0.975-1.708
					l-30.142-22.783c-1.04-0.787-2.5-0.645-3.371,0.327l-14.497,16.198c-0.497,0.557-0.708,1.23-0.618,1.971
					C26.412,334.629,26.779,335.231,27.396,335.65z"/>
				<polygon style="fill-rule:evenodd;clip-rule:evenodd;fill:#EBB39D;" points="57.531,319.513 40.366,334.354 62.16,351.174 
					75.204,330.581 				"/>
				<path style="fill-rule:evenodd;clip-rule:evenodd;fill:#DC8C8C;" d="M40.366,334.354l-9.783,7.883c0,0,0.912,4.688,2.475,4.688
					c1.563,0,6.119-0.521,6.119-0.521s6.901,5.339,15.365,7.812l7.618-3.042L40.366,334.354z"/>
				<path style="fill-rule:evenodd;clip-rule:evenodd;fill:#FFFFFF;" d="M104.774,184.712
					c-26.152-0.245-12.065,78.109-47.242,134.801c-4.257,7.375,11.068,14.882,17.673,11.068
					C121.779,290.902,130.927,184.958,104.774,184.712z"/>
			</g>
			<g>
				<g>
					<path style="fill-rule:evenodd;clip-rule:evenodd;fill:#EBB39D;" d="M196.124,106.115c0.943,21.862-1.98,37.671-18.408,44.152
						v20.569h-33.52l1.524-62.469L196.124,106.115z"/>
					<polygon style="fill-rule:evenodd;clip-rule:evenodd;fill:#DC8C8C;" points="177.716,150.267 177.716,170.836 144.196,170.836 
						144.638,152.729 					"/>
					<path style="fill-rule:evenodd;clip-rule:evenodd;fill:#DC8C8C;" d="M196.124,106.115c0.045,1.046,0.081,2.077,0.107,3.095
						c-4.826,1.543-10.713,2.616-16.991,1.95l-1.136-4.24L196.124,106.115z"/>
				</g>
				<g>
					<path style="fill-rule:evenodd;clip-rule:evenodd;fill:#232446;" d="M179.24,111.161c0,0,25.14-1.523,26.156-19.299
						c1.015-17.776-13.205-11.427-13.205-11.427s-59.275-23.505-57.927,8.419c-0.95-2.023-3.753-9.02-0.723-15.728l-0.538-0.242
						c-3.373,7.468,0.234,15.26,0.921,16.622c-0.572,0.12-3.654,0.906-5.722,4.311l0.503,0.305c1.638-2.698,3.93-3.639,4.923-3.933
						c-16.417,15.37,10.042,37.957,10.971,64.142h20.928l8.254-24.124c0,0-6.349-1.524-5.714-8.76
						c0.635-7.238,7.618-13.078,9.777-5.46L179.24,111.161L179.24,111.161z M143.117,155.391l20.569-0.126l0.001,0.287
						l-20.569,0.126L143.117,155.391z"/>
					<path style="fill-rule:evenodd;clip-rule:evenodd;fill:#3A3C6C;" d="M203.24,78.66c0,0,10.291,12.36-8.107,21.794
						C195.133,100.454,219.462,97.011,203.24,78.66z"/>
				</g>
			</g>
			<g>
				<path style="fill-rule:evenodd;clip-rule:evenodd;fill:#3A3C6C;" d="M168.661,174.363L168.661,174.363
					c24.547,0,44.63,20.083,44.63,44.631v35.556c0,24.548-20.083,44.631-44.63,44.631l0,0c-24.547,0-44.63-20.083-44.63-44.631
					v-35.556C124.03,194.447,144.114,174.363,168.661,174.363z"/>
				<path style="fill-rule:evenodd;clip-rule:evenodd;fill:#E69646;" d="M180.281,179.034L180.281,179.034
					c22.637,0,41.158,18.521,41.158,41.157v27.679c0,22.636-18.521,41.157-41.158,41.157l0,0c-22.636,0-41.157-18.521-41.157-41.157
					v-27.679C139.124,197.555,157.645,179.034,180.281,179.034z"/>
				<path style="fill-rule:evenodd;clip-rule:evenodd;fill:#EEC16E;" d="M187.515,183.722L187.515,183.722
					c18.085,0,32.882,14.795,32.882,32.88v21.467h-65.764v-21.467C154.633,198.518,169.43,183.722,187.515,183.722z"/>
				<path style="fill-rule:evenodd;clip-rule:evenodd;fill:#3A3C6C;" d="M157.92,177.966c2.215-7.309,5.959-11.514,9.538-13.259
					c1.741-0.849,3.453-1.138,4.973-0.935c1.51,0.201,2.81,0.887,3.738,1.989c1.872,2.22,2.228,6.181-0.401,11.202l-2.693-0.654
					c2.102-4.017,1.918-7.068,0.544-8.697c-0.568-0.674-1.343-1.092-2.229-1.209c-0.876-0.117-1.886,0.06-2.936,0.572
					c-2.757,1.344-5.719,4.841-7.629,11.148L157.92,177.966z"/>
				<path style="fill-rule:evenodd;clip-rule:evenodd;fill:#3A3C6C;" d="M147.273,187.601c0,0-2.42-10.48-17.357-11.099
					c0,0-12.26,1.062-14.835,5.886c0,0,11.855,2.217,17.477,13.807L147.273,187.601z"/>
				<path style="fill-rule:evenodd;clip-rule:evenodd;fill:#3A3C6C;" d="M190.68,201.523l6.132,9.527
					c0.5,0.776,0.542,1.691,0.117,2.511c-0.425,0.82-1.198,1.313-2.12,1.351l-11.364,0.475c-0.919,0.039-1.728-0.384-2.222-1.163
					c-0.492-0.777-0.531-1.689-0.104-2.504l5.23-10.003c0.425-0.814,1.192-1.301,2.108-1.343
					C189.375,200.333,190.183,200.75,190.68,201.523z"/>
				<rect x="147.602" y="237.774" style="fill-rule:evenodd;clip-rule:evenodd;fill:#3A3C6C;" width="72.795" height="0.591"/>
			</g>
		</g>
		<g>
			<path style="fill-rule:evenodd;clip-rule:evenodd;fill:#FFFFFF;" d="M274.31,94.359l-6.785,7.463
				c-1.062,1.169-1.279,2.79-0.562,4.198c0.717,1.407,2.155,2.185,3.726,2.012l9.273-1.018c1.188-0.13,2.155-0.747,2.776-1.767
				c0.621-1.022,0.724-2.162,0.293-3.279l-2.487-6.445c-0.478-1.24-1.485-2.077-2.791-2.321
				C276.445,92.958,275.205,93.374,274.31,94.359z"/>
			<path style="fill-rule:evenodd;clip-rule:evenodd;fill:#FFFFFF;" d="M270.498,120.336l5.005,0.836
				c0.98,0.164,1.753,0.733,2.198,1.623c0.445,0.89,0.439,1.849-0.018,2.732l-1.697,3.282c-0.482,0.932-1.331,1.508-2.375,1.614
				c-1.044,0.104-1.991-0.292-2.649-1.11l-3.308-4.118c-0.798-0.993-0.895-2.309-0.251-3.41
				C268.046,120.685,269.24,120.125,270.498,120.336z"/>
		</g>
		<g>
			<path style="fill-rule:evenodd;clip-rule:evenodd;fill:#96C042;" d="M197.411,445.819c1.153,0,2.272,0.148,3.339,0.424
				c4.319-16.851,22.239-29.486,43.693-29.486c22.358,0,40.881,13.722,44.168,31.638c1.92-0.656,3.988-1.014,6.144-1.014
				c10.01,0,18.125,7.695,18.125,17.188c0,1.432-0.187,2.823-0.534,4.153c-34.245,2.616-72.237,0.76-114.989-10.458
				c-4.244-1.113-8.397-2.323-12.458-3.627C186.734,449.498,191.643,445.819,197.411,445.819L197.411,445.819z M188.881,431.76
				l-0.322,4.6c-0.178,2.53,1.748,4.745,4.278,4.922l4.6,0.323l0.322-4.6c0.177-2.53-1.748-4.745-4.278-4.922L188.881,431.76
				L188.881,431.76z M304.73,434.045l-5.639-0.858c-3.1-0.472-6.024,1.678-6.495,4.78l-0.858,5.638l5.638,0.857
				c3.102,0.471,6.024-1.68,6.496-4.78L304.73,434.045z"/>
			<path style="fill-rule:evenodd;clip-rule:evenodd;fill:#BDD95B;" d="M276.828,469.666c0.804-1.967,3.044-3.348,5.681-3.293
				c2.573,0.054,4.767,1.457,5.618,3.384C284.404,469.789,280.638,469.759,276.828,469.666L276.828,469.666z M265.031,469.169
				c-21.178-1.261-43.675-4.607-67.673-10.905c-3.767-0.988-7.463-2.053-11.085-3.191c2.729-3.807,13.273-0.838,16.496,1.865
				c3.743-7.655,13.505-12.965,24.958-12.727c14.477,0.301,26.25,9.357,26.583,20.327c0.955-0.34,2.003-0.518,3.104-0.495
				C260.978,464.118,263.996,466.267,265.031,469.169z"/>
		</g>
	</g>
</g>
</svg>
