<?xml version="1.0" encoding="utf-8"?>
<!-- Generator: Adobe Illustrator 27.5.0, SVG Export Plug-In . SVG Version: 6.00 Build 0)  -->
<svg version="1.1" xmlns="http://www.w3.org/2000/svg" xmlns:xlink="http://www.w3.org/1999/xlink" x="0px" y="0px"
	 viewBox="0 0 750 500" style="enable-background:new 0 0 750 500;" xml:space="preserve">
<g id="BACKGROUND">
	<rect style="fill:#FFFFFF;" width="750" height="500"/>
</g>
<g id="OBJECTS">
	<path style="fill:#C9E3FE;" d="M47.042,163.691h151.731c0,0-6.897-27.89-38.508-23.428c0,0,9.196-19.628-6.897-25.4
		c-16.093-5.772-20.691,10.321-20.691,10.321s-2.874-31.345-29.312-25.443c-26.438,5.902-13.219,37.513-13.219,37.513
		s-5.747-13.724-17.817-8.299c-12.069,5.425-1.149,16.922-1.149,16.922S50.491,144.724,47.042,163.691z"/>
	<g>
		<path style="fill:#F2F2F2;" d="M52.78,434.08h643.648c0,0,34.189-171.046-64.265-209.909
			c-98.453-38.863-74.255-139.345-190.005-153.287c-104.585-12.597-158.566,46.065-175.455,79.213
			c-16.889,33.147-114.627,10.389-168.029,60.239C45.274,260.186,37.768,312.553,52.78,434.08z"/>
		<path style="fill:#E6E6E6;" d="M654.995,297.832H608.83v-45.924h-37.317v-26.201H532.98v36.887h-33.529v-49.849h-66.278v-50.034
			h-15.479h-37.973v71.195h-29.348v-34.344h-45.026v38.257h-47.906v-51.44h-63.91v18.979h-35.773v86.57h-47.574v-26.1H72.612v46.945
			l-25.089-0.221c-3.382,31.592-1.052,70.45,5.257,121.528h643.648c0,0,20.789-104.018-16.747-168.252h-24.686V297.832z"/>
		<path style="fill:#CCCCCC;" d="M664.218,313.55h-34.282v-55.268h-35.154v24.366h-23.269l-27.675,25.79v47.386h-37.175v-27.592
			l-29.881-24.447v-65.966h-43.608v46.044h-41.339v31.311h-41.461v-46.219h-32.988v-36.63h-40.622v41.229l-27.148-22.813v-39.542
			h-19.918v-19.733l-24.299,24.299v40.57h-28.309v-20.758h-46.457v93.205H87.038v-29.027H49.279
			c-5.707,33.796-3.688,76.127,3.502,134.326h643.648c0,0,8.473-42.398,4.833-89.773h-37.044V313.55z"/>
		<rect x="99.238" y="359.766" style="fill:#EEEFFE;" width="10.945" height="18.789"/>
		<rect x="118.383" y="387.79" style="fill:#EEEFFE;" width="10.945" height="18.789"/>
		<rect x="61.666" y="332.666" style="fill:#EEEFFE;" width="10.945" height="18.789"/>
		<rect x="147.061" y="279.043" style="fill:#EEEFFE;" width="10.945" height="18.789"/>
		<rect x="164.909" y="308.199" style="fill:#EEEFFE;" width="10.945" height="18.789"/>
		<rect x="149.743" y="342.061" style="fill:#EEEFFE;" width="10.945" height="18.789"/>
		<rect x="223.829" y="280.504" style="fill:#EEEFFE;" width="10.945" height="18.789"/>
		<rect x="223.829" y="339.485" style="fill:#EEEFFE;" width="10.945" height="18.789"/>
		<rect x="251.968" y="312.366" style="fill:#EEEFFE;" width="10.945" height="18.789"/>
		<rect x="294.35" y="282.534" style="fill:#EEEFFE;" width="10.945" height="18.789"/>
		<rect x="321.349" y="308.199" style="fill:#EEEFFE;" width="10.945" height="18.789"/>
		<rect x="294.35" y="342.061" style="fill:#EEEFFE;" width="10.945" height="18.789"/>
		<rect x="367.031" y="334.913" style="fill:#EEEFFE;" width="10.945" height="18.789"/>
		<rect x="367.577" y="366.447" style="fill:#EEEFFE;" width="10.945" height="18.789"/>
		<rect x="412.221" y="316.032" style="fill:#EEEFFE;" width="10.945" height="18.789"/>
		<rect x="448.977" y="291.572" style="fill:#EEEFFE;" width="10.945" height="18.789"/>
		<rect x="448.977" y="319.843" style="fill:#EEEFFE;" width="10.945" height="18.789"/>
		<rect x="477.623" y="352.044" style="fill:#EEEFFE;" width="10.945" height="18.789"/>
		<rect x="477.623" y="380.638" style="fill:#EEEFFE;" width="10.945" height="18.789"/>
		<rect x="518.117" y="374.165" style="fill:#EEEFFE;" width="10.945" height="18.789"/>
		<rect x="560.467" y="318.838" style="fill:#EEEFFE;" width="10.945" height="18.789"/>
		<rect x="581.745" y="348.879" style="fill:#EEEFFE;" width="10.945" height="18.789"/>
		<rect x="640.253" y="334.913" style="fill:#EEEFFE;" width="10.945" height="18.789"/>
		<rect x="608.83" y="352.044" style="fill:#EEEFFE;" width="10.945" height="18.789"/>
		<rect x="640.253" y="373.019" style="fill:#EEEFFE;" width="10.945" height="18.789"/>
		<rect x="674.967" y="366.447" style="fill:#EEEFFE;" width="10.945" height="18.789"/>
		<rect x="606.618" y="288.438" style="fill:#EEEFFE;" width="10.945" height="18.789"/>
		<rect x="560.467" y="373.019" style="fill:#EEEFFE;" width="10.945" height="18.789"/>
		<rect x="581.745" y="319.388" style="fill:#EEEFFE;" width="10.945" height="18.789"/>
		<rect x="251.968" y="383.56" style="fill:#EEEFFE;" width="10.945" height="18.789"/>
	</g>
	<g>
		<path style="fill:#603813;" d="M670.222,433.882h-1.784c-2.198,0-3.997-1.799-3.997-3.997V327.362
			c0-2.198,1.798-3.997,3.997-3.997h1.784c2.198,0,3.997,1.798,3.997,3.997v102.523C674.219,432.084,672.42,433.882,670.222,433.882
			z"/>
		<g>
			<path style="fill:#8CC68A;" d="M669.33,192.493c-2.73,0-48.038,128.556-46.4,132.572c1.638,4.016,46.4,40.416,46.4,40.416
				V192.493z"/>
			<path style="fill:#7AB878;" d="M669.33,192.493c2.729,0,48.038,128.556,46.4,132.572c-1.638,4.016-46.4,40.416-46.4,40.416
				V192.493z"/>
		</g>
	</g>
	<g>
		<path style="fill:#808080;" d="M364.445,448.069H222.703c-8.937,0-16.182-7.245-16.182-16.182V148.258
			c0-8.937,7.245-16.182,16.182-16.182h141.742c8.937,0,16.182,7.245,16.182,16.182v283.629
			C380.627,440.824,373.382,448.069,364.445,448.069z"/>
		<path style="fill:#333333;" d="M379.503,448.069H237.761c-8.937,0-16.182-7.245-16.182-16.182V148.258
			c0-8.937,7.245-16.182,16.182-16.182h141.742c8.937,0,16.182,7.245,16.182,16.182v283.629
			C395.684,440.824,388.44,448.069,379.503,448.069z"/>
		<path style="fill:#140003;" d="M326.885,145.644h-36.507c-1.694,0-3.081-1.386-3.081-3.081v-0.357
			c0-1.694,1.386-3.081,3.081-3.081h36.507c1.694,0,3.081,1.386,3.081,3.081v0.357C329.966,144.258,328.58,145.644,326.885,145.644z
			"/>
		<circle style="fill:#140003;" cx="308.632" cy="438.328" r="5.501"/>
		<g>
			<path style="fill:#666666;" d="M215.881,197.304h-2.645v1.346c-0.41,0.551-0.661,1.225-0.661,1.96v22.216
				c0,0.735,0.251,1.409,0.661,1.96v1.346h2.645c1.818,0,3.306-1.488,3.306-3.306V200.61
				C219.187,198.792,217.699,197.304,215.881,197.304z"/>
			<path style="fill:#B3B3B3;" d="M213.417,226.132h-0.362c-1.719,0-3.125-1.406-3.125-3.125v-22.578
				c0-1.719,1.406-3.125,3.125-3.125h0.362c1.719,0,3.125,1.406,3.125,3.125v22.578
				C216.542,224.726,215.136,226.132,213.417,226.132z"/>
		</g>
		<g>
			<path style="fill:#666666;" d="M215.881,163.187h-2.645v1.346c-0.41,0.551-0.661,1.225-0.661,1.96v14.811
				c0,0.735,0.251,1.409,0.661,1.96v1.346h2.645c1.818,0,3.306-1.488,3.306-3.306v-14.811
				C219.187,164.675,217.699,163.187,215.881,163.187z"/>
			<path style="fill:#B3B3B3;" d="M213.417,184.61h-0.362c-1.719,0-3.125-1.406-3.125-3.125v-15.172
				c0-1.719,1.406-3.125,3.125-3.125h0.362c1.719,0,3.125,1.406,3.125,3.125v15.172C216.542,183.203,215.136,184.61,213.417,184.61z
				"/>
		</g>
		<g>
			<path style="fill:#666666;" d="M215.881,229.57h-2.645v1.346c-0.41,0.551-0.661,1.225-0.661,1.96v22.216
				c0,0.735,0.251,1.409,0.661,1.96v1.346h2.645c1.818,0,3.306-1.488,3.306-3.306v-22.216
				C219.187,231.058,217.699,229.57,215.881,229.57z"/>
			<path style="fill:#B3B3B3;" d="M213.417,258.398h-0.362c-1.719,0-3.125-1.406-3.125-3.125v-22.578
				c0-1.719,1.406-3.125,3.125-3.125h0.362c1.719,0,3.125,1.406,3.125,3.125v22.578
				C216.542,256.991,215.136,258.398,213.417,258.398z"/>
		</g>
		<g>
			<rect x="235.296" y="152.729" style="fill:#8ED9E7;" width="146.672" height="274.688"/>
			<g>
				<path style="fill:#F15A24;" d="M293.093,349.247c1.99-3.524,3.131-7.591,3.131-11.927c0-13.419-10.878-24.298-24.298-24.298
					c-13.419,0-24.298,10.879-24.298,24.298c0,4.336,1.141,8.403,3.131,11.927l21.167,41.949L293.093,349.247z"/>
				
					<ellipse transform="matrix(0.6631 -0.7485 0.7485 0.6631 -160.8815 317.1601)" style="fill:#FFFFFF;" cx="271.926" cy="337.32" rx="15.871" ry="15.871"/>
			</g>
			<path style="fill:#FFFFFF;" d="M381.968,277.224v-9.705c-41.778-8.028-76.849-26.828-87.735-33.097
				c4.067-9.351,7.2-18.251,9.596-26.333c7.104-23.962,9.02-44.085,9.484-55.361h-9.56c-0.409,9.016-1.782,23.943-6.125,41.782
				c-24.277,1.97-47.789-6.362-62.331-13.09v10.52c13.844,6.016,33.543,12.407,54.796,12.407c1.638,0,3.288-0.048,4.943-0.127
				c-0.146,0.503-0.286,1.002-0.438,1.509c-8.11,27.197-24.863,64.036-59.302,95.62v12.694
				c26.334-22.297,43.612-47.627,54.934-70.914c6.63,3.818,19.989,11.032,37.624,18.134c-3.283,10.335-11.568,37.956-17.698,71.555
				c-6.534,35.809-8.826,67.445-6.882,94.598h9.62c-4.807-66.072,17.691-143.106,23.865-162.722
				C350.177,269.63,365.537,274.222,381.968,277.224z"/>
			<path style="fill:#8CC68A;" d="M263.322,216.908c-9.142-1.236-20.314-4.639-28.026-7.255v67.118
				C255.096,258.66,276.805,218.732,263.322,216.908z"/>
			<path style="fill:#4CBAD2;" d="M317.579,210.032c-3.028,18.67,27.163,34.439,64.388,34.935v-92.238h-54.925
				C324.853,165.892,319.993,195.148,317.579,210.032z"/>
			<path style="fill:#B5EDF5;" d="M381.968,295.64c-7.962-1.365-17.638-3.292-24.717-5.568c-14.282-4.59-16.397,7.235-23.467,49.022
				c-5.205,30.768-4.074,69.849-3.116,88.322h51.3V295.64z"/>
		</g>
	</g>
	<g>
		<g>
			<path style="fill:#4D4D4D;" d="M394.115,429.306c0-14.769-8.714-27.495-21.278-33.339v-3.418h-15.479
				c-20.3,0-36.757,16.457-36.757,36.757c0,20.3,16.457,36.757,36.757,36.757h15.479v-3.418
				C385.4,456.801,394.115,444.075,394.115,429.306z"/>
			
				<ellipse transform="matrix(0.7071 -0.7071 0.7071 0.7071 -194.3638 389.3765)" style="fill:#1A1A1A;" cx="372.837" cy="429.306" rx="36.757" ry="36.757"/>
			
				<ellipse transform="matrix(0.7071 -0.7071 0.7071 0.7071 -194.3638 389.3765)" style="fill:#4D4D4D;" cx="372.837" cy="429.306" rx="21.534" ry="21.534"/>
		</g>
		<path style="fill:#B3B3B3;" d="M388.852,432.712c0,0,258.022,0,266.69,0c8.668,0,10.402-10.768,10.402-10.768H375.272
			L388.852,432.712z"/>
		<path style="fill:#FFA700;" d="M667.278,404.287c-2.396-11.151-8.985-15.333-14.975-18.818
			c-5.99-3.485-39.433-20.676-39.433-20.676s-11.937-15.955-22.153-33.454c-9.337-15.994-19.144-21.838-26.731-21.838
			c-7.588,0-67.516,0-67.516,0s-25.115,0-34.3,12.081c-9.185,12.08-17.615,43.211-17.615,43.211l-73.857,14.404l-10.161,23.696
			l20.335,19.05h290.599C671.471,421.943,669.674,415.438,667.278,404.287z"/>
		<path style="fill:#FD8C00;" d="M667.278,404.287c-2.396-11.151-8.985-15.333-14.975-18.818
			c-2.982-1.735-12.768-6.867-21.845-11.584H397.931l-10.358,2.02l-17.907,28.289l0.243,0.228h297.398
			C667.298,404.376,667.288,404.333,667.278,404.287z"/>
		<path style="fill:#FFA700;" d="M366.748,388.409v3.707h294.489c-2.718-2.935-5.902-4.882-8.934-6.646
			c-0.261-0.152-0.591-0.338-0.951-0.54H368.24L366.748,388.409z"/>
		<path style="fill:#FFCC00;" d="M296.842,393.601c1.198-6.04,7.587-9.757,12.38-11.151c4.792-1.394,60.301-17.656,60.301-17.656
			h75.033c0,0-46.054,16.262-50.03,17.656c-3.976,1.394-9.277,5.111-10.271,11.151H296.842z"/>
		<path style="fill:#FFBC00;" d="M384.466,393.601c0,0-8.386,22.302-3.594,28.343h-87.625c-4.792-6.04,3.594-28.343,3.594-28.343
			H384.466z"/>
		<path style="fill:#FFCC00;" d="M421.437,309.502c-3.993,0-9.584,3.253-12.38,6.505c-2.795,3.253-39.535,48.787-39.535,48.787
			h75.033c0,0,36.74-45.534,39.535-48.787c2.795-3.252,8.386-6.505,12.38-6.505H421.437z"/>
		<path d="M379.75,362.066c0,0,24.704-30.339,28.605-35.106c3.901-4.767,8.235-8.235,15.169-8.235s50.275,0,50.275,0l-35.106,43.341
			H379.75z"/>
		<path style="fill:#C76100;" d="M540.857,421.943h101.888c-7.171-21.263-27.262-36.58-50.944-36.58
			S548.028,400.681,540.857,421.943z"/>
		<path style="fill:#CCCCCC;" d="M296.842,421.943c0,0,1.573,10.768,5.906,10.768c4.334,0,86.104,0,86.104,0
			s-3.281-3.877-4.386-10.768H296.842z"/>
		<path style="fill:#C76100;" d="M407.945,421.943h101.888c-7.171-21.263-27.262-36.58-50.944-36.58
			C435.207,385.363,415.116,400.681,407.945,421.943z"/>
		<g>
			<path style="fill:#1A1A1A;" d="M488.226,433.207c0-14.769-8.714-27.495-21.277-33.339v-3.418h-15.479
				c-20.3,0-36.757,16.457-36.757,36.757c0,20.3,16.457,36.757,36.757,36.757h15.479v-3.418
				C479.512,460.702,488.226,447.975,488.226,433.207z"/>
			
				<ellipse transform="matrix(0.7071 -0.7071 0.7071 0.7071 -169.5575 457.0656)" style="fill:#4D4D4D;" cx="466.948" cy="433.207" rx="36.757" ry="36.757"/>
			
				<ellipse transform="matrix(0.7071 -0.7071 0.7071 0.7071 -169.5575 457.0656)" style="fill:#B3B3B3;" cx="466.948" cy="433.207" rx="21.534" ry="21.534"/>
		</g>
		<g>
			<path style="fill:#1A1A1A;" d="M620.993,433.207c0-14.769-8.714-27.495-21.277-33.339v-3.418h-15.479
				c-20.3,0-36.757,16.457-36.757,36.757c0,20.3,16.457,36.757,36.757,36.757h15.479v-3.418
				C612.279,460.702,620.993,447.975,620.993,433.207z"/>
			
				<ellipse transform="matrix(0.7071 -0.7071 0.7071 0.7071 -130.6709 550.9462)" style="fill:#4D4D4D;" cx="599.715" cy="433.207" rx="36.757" ry="36.757"/>
			
				<ellipse transform="matrix(0.7071 -0.7071 0.7071 0.7071 -130.6709 550.9462)" style="fill:#B3B3B3;" cx="599.715" cy="433.207" rx="21.534" ry="21.534"/>
		</g>
		<path style="fill:#FF0000;" d="M667.278,404.287c-2.155-10.028-7.7-14.416-13.151-17.733c-4.527,0-13.201,0-15.415,0
			c-7.585,0,4.767,19.72,10.618,19.72c4.075,0,13.207,0,18.379,0C667.568,405.629,667.424,404.967,667.278,404.287z"/>
		<path d="M600.933,362.066c0,0-9.132-16.036-22.393-35.106c-3.765-5.415-8.957-8.235-19.482-8.235c-5.159,0-15.283,0-29.059,0
			v43.341H600.933z"/>
		<path d="M498.071,318.725c-6.935,0-8.957,3.034-11.145,5.345c-2.188,2.311-30.751,37.995-30.751,37.995h64.433v-43.341
			C509.945,318.725,500.821,318.725,498.071,318.725z"/>
		<g>
			<path style="fill:#FFFFFF;" d="M298.749,414.943c-3.636,0-4.727-2.909-4.121-5.334c0.606-2.424,5.212-8.97,11.637-8.97
				c6.424,0,9.334,0,12.122,0c2.788,0,5.455,2.788,5.455,5.697s-0.485,8.606-4.728,8.606
				C314.871,414.943,298.749,414.943,298.749,414.943z"/>
			<path style="fill:#F2F2F2;" d="M319.113,414.943c3.786,0,4.578-4.531,4.705-7.575c-12.066,6.104-23.2,2.51-28.239,0.179
				c-0.488,0.808-0.82,1.536-0.952,2.063c-0.606,2.424,0.485,5.333,4.121,5.333C298.749,414.943,314.871,414.943,319.113,414.943z"
				/>
		</g>
		<g>
			<path style="fill:#FFFFFF;" d="M372.46,414.943c3.637,0,4.728-2.909,4.121-5.334c-0.606-2.424-5.212-8.97-11.637-8.97
				c-6.424,0-9.334,0-12.122,0c-2.788,0-5.455,2.788-5.455,5.697s0.485,8.606,4.727,8.606
				C356.339,414.943,372.46,414.943,372.46,414.943z"/>
			<path style="fill:#F2F2F2;" d="M352.096,414.943c-3.786,0-4.578-4.531-4.705-7.575c12.066,6.104,23.2,2.51,28.239,0.179
				c0.488,0.808,0.82,1.536,0.952,2.063c0.606,2.424-0.485,5.333-4.121,5.333C372.46,414.943,356.339,414.943,352.096,414.943z"/>
		</g>
		<path style="fill:#F2F2F2;" d="M351.579,434.479h-33.01c-1.875,0-3.396-1.52-3.396-3.396v-10.979c0-1.875,1.52-3.395,3.396-3.395
			h33.01c1.875,0,3.396,1.52,3.396,3.395v10.979C354.974,432.958,353.454,434.479,351.579,434.479z"/>
		<path style="fill:#1A1A1A;" d="M511.664,370.445c-5.182,0-9.653-0.054-8.85,3.44c0.802,3.494,6.123,3.639,8.85,3.639
			c2.727,0,8.048-0.145,8.85-3.639C521.317,370.392,516.846,370.445,511.664,370.445z"/>
		<g>
			<path style="fill:#00ABA5;" d="M482.801,291.313c3.215,0,4.813,3.107,5.345,5.061c0.533,1.953,3.64,13.129,3.64,13.129h-20.491
				c0,0-5.967-9.311-4.813-13.75C467.637,291.313,482.801,291.313,482.801,291.313z"/>
			<path style="fill:#00CECA;" d="M443.613,309.502c0,0,5.29-13.217,6.09-14.904c0.799-1.687,3.107-3.285,5.416-3.285h27.682
				c-2.308,0-4.617,1.598-5.416,3.285c-0.799,1.687-6.09,14.904-6.09,14.904H443.613z"/>
		</g>
	</g>
	<g>
		<path style="fill:#FFCC00;" d="M177.925,109.465c0-12.558-8.563-23.113-20.168-26.152v-0.882h-6.867
			c-14.931,0-27.034,12.104-27.034,27.035c0,4.824,1.27,9.349,3.484,13.27l23.551,46.674h6.867v-13.609l16.684-33.066
			C176.655,118.814,177.925,114.289,177.925,109.465z"/>
		<path style="fill:#FFA700;" d="M181.308,122.735c2.214-3.921,3.484-8.446,3.484-13.27c0-14.931-12.104-27.035-27.035-27.035
			c-14.931,0-27.035,12.104-27.035,27.035c0,4.824,1.269,9.349,3.484,13.27l23.551,46.674L181.308,122.735z"/>
		
			<ellipse transform="matrix(0.9256 -0.3786 0.3786 0.9256 -29.6999 67.8744)" style="fill:#FFFFFF;" cx="157.757" cy="109.465" rx="17.659" ry="17.659"/>
	</g>
	<g>
		<path style="fill:#F5B590;" d="M96.179,317.593c0,0-0.756,5.838-1.176,6.51c-0.42,0.672-3.108,3.36-3.108,4.452
			s1.512,6.132,2.394,7.14c0.882,1.008,4.494,1.68,5.25,1.596c0.756-0.084,1.428-2.026,1.428-2.026s1.932-1.166,2.688-2.174
			s0.168-5.04,0-5.628c-0.168-0.588-1.344-2.436-1.344-2.436l1.721-5.208L96.179,317.593z"/>
		<g>
			<g>
				<path style="fill:#808080;" d="M188.944,228.844l-7.163,0.346c-0.967,0.047-1.788-0.699-1.835-1.666l-0.766-15.854
					c-0.047-0.967,0.699-1.788,1.666-1.835l7.163-0.346c0.967-0.047,1.788,0.699,1.835,1.666l0.766,15.854
					C190.657,227.976,189.911,228.797,188.944,228.844z"/>
				<path style="fill:#333333;" d="M189.867,228.799l-7.163,0.346c-0.967,0.047-1.788-0.699-1.835-1.666l-0.766-15.854
					c-0.047-0.967,0.699-1.788,1.666-1.835l7.163-0.346c0.967-0.047,1.788,0.699,1.835,1.666l0.766,15.854
					C191.579,227.931,190.833,228.753,189.867,228.799z"/>
				<path style="fill:#808080;" d="M185.538,213.508c0,0-1.557,0.239-1.486,1.708c0.071,1.469,1.718,3.098,1.718,3.098
					s1.482-1.78,1.411-3.249C187.11,213.595,185.538,213.508,185.538,213.508z"/>
			</g>
			<path style="fill:#F5B590;" d="M189.19,237.765c0,0-0.169-2.852-0.269-3.694c-0.1-0.842,2.574-3.303,3.04-4.728
				c0.465-1.425,1.309-5.688,1.544-7.143c0.234-1.455-1.242-1.064-1.988,0.151c-0.746,1.215-2.401,5.148-2.401,5.148
				s-2.199-2.197-2.774-2.525s-5.345-4.121-5.691-4.413c-0.346-0.291-1.362-2.026-2-1.972c-0.637,0.054-0.649,1.348-0.506,1.922
				c0.143,0.573,0.676,1.169,0.676,1.169s-0.949-0.938-1.279-0.835c-0.331,0.104-0.485,1.061-0.253,1.57
				c0.232,0.509,1.277,1.581,1.277,1.581s-1.005-1.075-1.251-0.644c-0.246,0.432-0.343,1.035-0.025,1.616
				c0.319,0.582,1.67,2.066,1.67,2.066s-0.855-0.727-1.138-0.979c-0.284-0.252-0.727-0.058-0.633,0.635
				c0.095,0.693,1.031,2.375,2.485,3.405c1.454,1.03,2.354,2.206,2.572,3.596c0.218,1.39,0.395,4.129,0.395,4.129L189.19,237.765z"
				/>
		</g>
		<path style="fill:#7DE0FF;" d="M186.486,272.149c0,0-10.004-26.988-16.104-30.391l1.719,31.098c0,0,6.941,15.812,9.965,16.742
			c2.095,0.645,6.532,0.282,9.681-1.392l-3.46-22.047L186.486,272.149z"/>
		<path style="fill:#F5B590;" d="M147.114,215.765l-0.76,20.672c0,0,6.398,12.214,10.818,12.447
			c4.42,0.233,3.026-22.102,3.026-22.102L147.114,215.765z"/>
		<path style="fill:#65CAF0;" d="M190.224,288.871c0.38-1.578,0.64-3.358,0.807-5.228l-2.744-17.484l-1.801,5.99
			c0,0-3.107-8.38-6.914-16.389c-0.909,6.982-2.361,21.221-0.575,30.468c1.164,1.797,2.257,3.121,3.068,3.37
			C183.841,290.145,187.294,289.957,190.224,288.871z"/>
		<path style="fill:#F59E7D;" d="M147.2,215.837l-0.113,0.652L146.848,223c0.494,1.396,1.483,3.316,3.461,5.41
			c2.745,2.907,7.171,6.707,10.089,7.167c0.056-4.679-0.2-8.795-0.2-8.795L147.2,215.837z"/>
		<g>
			<polygon style="fill:#534741;" points="144.942,214.218 147.734,221.656 149.518,215.102 			"/>
			<path style="fill:#F5B590;" d="M147.114,207.222c0,0-3.412-4.713-6.669-2.209c-3.257,2.504,0.931,9.574,6.669,10.752
				c0,0,0.465,2.062,0.62,5.891c0.155,3.829,17.061,11.93,21.404,9.721c4.343-2.209,1.086-34.318,1.086-34.318
				s-4.963-4.566-13.029-4.566s-9.927,5.008-9.927,7.07C147.269,201.625,147.114,207.222,147.114,207.222z"/>
			<path style="fill:#F59E7D;" d="M164.485,211.199c0,0,4.808,8.082,4.576,8.805c-0.233,0.723-4.576,2.168-4.576,2.168V211.199z"/>
			<path d="M145.319,205.413l1.795,1.809l0.62,5.523c0,0,2.67-7.365,3.102-13.182c0,0,0.776,2.651,2.249,1.988
				c1.473-0.663,0.775-3.903,0.775-3.903s11.341,7.659,17.536,5.229c6.195-2.43,7.746-8.69,5.885-10.678
				c-1.861-1.988-4.576,0.81-4.576,0.81s1.551-2.798-0.775-3.388c-2.327-0.589-2.861,1.473-2.861,1.473s-4.118-4.64-11.02-4.713
				c-6.902-0.074-7.988,2.872-7.988,2.872s-1.473-3.535-3.567-2.283c-2.094,1.252,0.388,3.167,0.388,3.167s-2.947-1.62-3.723,0.295
				c-0.775,1.915,2.404,2.062,2.404,2.062s-5.524,1.965-2.025,11.955L145.319,205.413z"/>
		</g>
		<path style="fill:#7DE0FF;" d="M146.465,233.408c0,0,4.076,6.751,11.638,11.521c0,0,1.981-5.697,2.27-8.025
			c0,0,8.73,4.04,10.009,4.854s3.528,62.353,3.838,63.816c0.31,1.462-3.535,7.977-3.535,7.977h-34.931c0,0-4.653-5.717-4.963-7.977
			c-0.31-2.26-0.22-60.8,0.711-62.971C132.433,240.431,146.465,233.408,146.465,233.408z"/>
		<path style="fill:#534741;" d="M153.627,248.886l3.373,4.239c0,0-1.25,54.397-1,55.074c0.25,0.676,2.625,4.167,2.625,4.167
			s2.46-3.344,2.73-4.167c0.27-0.824-2.301-55.199-2.301-55.199l2.571-4.114l-3.523-3.957L153.627,248.886z"/>
		<path style="fill:#C0FFFF;" d="M146.465,233.408c0,0-4.612,2.398-5.437,2.849c0,0,11.405,15.652,11.952,15.652
			c0.547,0,5.122-6.98,5.122-6.98S149.95,237.553,146.465,233.408z"/>
		<path style="fill:#C0FFFF;" d="M158.102,244.929c0,0,4.11,6.514,4.731,6.359c0.62-0.155,0.775-12.872,0.775-12.872l-3.235-1.512
			L158.102,244.929z"/>
		<path style="fill:#65CAF0;" d="M130.654,279.196c4.068-4.502,8.02-15.549,7.361-27.288l-7.179,7.445
			C130.742,265.445,130.683,272.477,130.654,279.196z"/>
		<path style="fill:#7DE0FF;" d="M131.503,242.602c-5.451,2.021-24.351,36.527-25.282,38.155
			c-0.931,1.629-13.959,40.016-13.959,40.016l11.633,4.653c0,0,15.588-36.723,15.82-37.904c0.233-1.181,11.4-12.979,15.82-23.133
			C139.956,254.235,138.405,240.043,131.503,242.602z"/>
		<path style="fill:#00CECA;" d="M159.985,437.547h12.253c0,0,0.62-92.509,0.62-103.891c0-12.572-2.173-20.105-2.173-20.105h-12.583
			h-0.729h-21.619c-9.272,11.876-1.052,43.827-1.052,52.823c0,8.996,0.155,71.173,0.155,71.173h13.494l7.445-103.891
			L159.985,437.547z"/>
		<path style="fill:#534741;" d="M135.739,437.547c0,0-0.909,1.633-0.97,3.232c-0.061,1.599,0,6.624,0,6.624h4.001l1.394-0.914
			c0,0,0,0.914,2.303,0.914s10.486,0,12.729,0c2.243,0,4.607-1.028,3.152-3.54c-1.455-2.512-9.82-3.609-13.093-6.316H135.739z"/>
		<path style="fill:#534741;" d="M161.33,437.547c0,0-0.909,1.633-0.97,3.232c-0.061,1.599,0,6.624,0,6.624h4.001l1.394-0.914
			c0,0,0,0.914,2.303,0.914s10.486,0,12.729,0c2.243,0,4.607-1.028,3.152-3.54c-1.455-2.512-9.82-3.609-13.093-6.316H161.33z"/>
		<path style="fill:#7DE0FF;" d="M182.153,289.609c-4.228-3.061-1.358-55.658-1.358-55.658l11.208-0.045
			c0,0,2.127,34.292,2.298,44.175C194.491,289.072,188.471,294.182,182.153,289.609z"/>
		<path style="fill:#534741;" d="M171.428,316.896c-0.407-2.17-0.742-3.346-0.742-3.346h-12.583h-0.729h-21.619
			c-0.469,0.924-1.79,2.054-2.115,3.346H171.428z"/>
		<rect x="138.022" y="313.55" style="fill:#00CECA;" width="1.722" height="5.556"/>
		<rect x="145.164" y="313.55" style="fill:#00CECA;" width="1.722" height="5.556"/>
		<rect x="163.66" y="313.55" style="fill:#00CECA;" width="1.722" height="5.556"/>
		<rect x="151.377" y="313.639" style="fill:#FFFFFF;" width="7.677" height="3.257"/>
		<g>
			<g>
				<path style="fill:#1A1A1A;" d="M87.038,442.749c0-2.07-1.221-3.854-2.982-4.673v-0.479h-2.169c-2.845,0-5.152,2.307-5.152,5.152
					c0,2.845,2.306,5.152,5.152,5.152h2.169v-0.479C85.816,446.603,87.038,444.819,87.038,442.749z"/>
				<path style="fill:#4D4D4D;" d="M89.207,442.749c0,2.845-2.307,5.152-5.152,5.152c-2.845,0-5.152-2.307-5.152-5.152
					c0-2.845,2.306-5.152,5.152-5.152C86.901,437.597,89.207,439.904,89.207,442.749z"/>
			</g>
			<path style="fill:#F18824;" d="M86.261,371.312H71.039c-2.154,0-3.9,1.746-3.9,3.9v59.196c0,2.154,1.746,3.9,3.9,3.9h15.221
				c2.154,0,3.9-1.746,3.9-3.9v-59.196C90.161,373.058,88.415,371.312,86.261,371.312z"/>
			<path style="fill:#F15A24;" d="M92.751,371.312H77.53c-2.154,0-3.9,1.746-3.9,3.9v59.196c0,2.154,1.746,3.9,3.9,3.9h15.221
				c2.154,0,3.9-1.746,3.9-3.9v-59.196C96.651,373.058,94.905,371.312,92.751,371.312z"/>
			<path style="fill:#4D4D4D;" d="M96.651,378.555h5.174c0,0,0,16.21,0,22.074c0,5.863-2.069,6.725-5.174,6.725V378.555z"/>
			<rect x="96.651" y="333.094" style="fill:#999999;" width="3.277" height="45.461"/>
			<path style="fill:#4D4D4D;" d="M98.929,342.061h-1.452c-1.123,0-2.033-0.91-2.033-2.033v-9.212c0-1.123,0.91-2.033,2.033-2.033
				h1.452c1.123,0,2.033,0.91,2.033,2.033v9.212C100.962,341.151,100.052,342.061,98.929,342.061z"/>
		</g>
	</g>
	<path style="fill:#C9E3FE;" d="M187.184,82.431h114.326c0,0-5.062-22.991-29.109-18.034c0,0,8.859-11.075,0.844-15.293
		c-8.016-4.219-12.234,5.167-12.234,5.167s-3.375-21.62-23.624-19.089c-20.25,2.531-17.718,20.883-14.344,29.215
		C223.042,64.396,201.949,56.61,187.184,82.431z"/>
	<path style="fill:#C9E3FE;" d="M690.86,166.111c1.341-4.69,1.333-10.004-4.049-12.528c-10.021-4.699-18.246,8.71-19.359,10.629
		c0.976-1.75,6.915-13.214-3.036-16.712c-10.783-3.79-13.686,6.842-13.686,6.842s1.244-28.588-24.883-22.08
		c-26.127,6.508-10.368,32.183-10.368,32.183s-7.05-9.792-14.93-4.896c-7.88,4.896-0.415,11.861-0.415,11.861
		s-25.298-8.589-34.421,15.24h146.809C712.523,186.651,708.013,171.883,690.86,166.111z"/>
	<g>
		<path style="fill:#27E2DF;" d="M561.549,171.304c0-18.221-12.425-33.537-29.263-37.946v-1.28h-9.964
			c-21.664,0-39.227,17.563-39.227,39.227c0,7,1.842,13.566,5.055,19.255l34.172,67.724h9.964v-19.746l24.208-47.978
			C559.707,184.869,561.549,178.303,561.549,171.304z"/>
		<path style="fill:#00CECA;" d="M566.458,190.558c3.213-5.689,5.055-12.255,5.055-19.255c0-21.664-17.563-39.227-39.227-39.227
			c-21.664,0-39.227,17.563-39.227,39.227c0,7,1.842,13.566,5.055,19.255l34.172,67.724L566.458,190.558z"/>
		
			<ellipse transform="matrix(0.2273 -0.9738 0.9738 0.2273 244.4983 650.7318)" style="fill:#FFFFFF;" cx="532.286" cy="171.304" rx="25.623" ry="25.623"/>
	</g>
</g>
</svg>
